<svg width="28" height="29" viewBox="0 0 28 29" fill="none" xmlns="http://www.w3.org/2000/svg">
<g opacity="0.5">
<path d="M21 9.83301C21 7.97649 20.2625 6.19601 18.9497 4.88326C17.637 3.57051 15.8565 2.83301 14 2.83301C12.1435 2.83301 10.363 3.57051 9.05025 4.88326C7.7375 6.19601 7 7.97649 7 9.83301C7 17.9997 3.5 20.333 3.5 20.333H24.5C24.5 20.333 21 17.9997 21 9.83301Z" stroke="#84694B" stroke-width="2" stroke-linecap="round" stroke-linejoin="round"/>
<path d="M16.0181 25C15.813 25.3536 15.5186 25.6471 15.1644 25.8511C14.8102 26.0551 14.4086 26.1625 13.9998 26.1625C13.591 26.1625 13.1894 26.0551 12.8352 25.8511C12.481 25.6471 12.1866 25.3536 11.9814 25" stroke="#84694B" stroke-width="2" stroke-linecap="round" stroke-linejoin="round"/>
</g>
</svg>
