<svg width="28" height="29" viewBox="0 0 28 29" fill="none" xmlns="http://www.w3.org/2000/svg">
<g opacity="0.5">
<path d="M3.5 21.5V14.5C3.5 11.7152 4.60625 9.04451 6.57538 7.07538C8.54451 5.10625 11.2152 4 14 4C16.7848 4 19.4555 5.10625 21.4246 7.07538C23.3938 9.04451 24.5 11.7152 24.5 14.5V21.5" stroke="#84694B" stroke-width="2" stroke-linecap="round" stroke-linejoin="round"/>
<path d="M24.5 22.6663C24.5 23.2852 24.2542 23.8787 23.8166 24.3163C23.379 24.7538 22.7855 24.9997 22.1667 24.9997H21C20.3812 24.9997 19.7877 24.7538 19.3501 24.3163C18.9125 23.8787 18.6667 23.2852 18.6667 22.6663V19.1663C18.6667 18.5475 18.9125 17.954 19.3501 17.5164C19.7877 17.0788 20.3812 16.833 21 16.833H24.5V22.6663ZM3.5 22.6663C3.5 23.2852 3.74583 23.8787 4.18342 24.3163C4.621 24.7538 5.21449 24.9997 5.83333 24.9997H7C7.61884 24.9997 8.21233 24.7538 8.64992 24.3163C9.0875 23.8787 9.33333 23.2852 9.33333 22.6663V19.1663C9.33333 18.5475 9.0875 17.954 8.64992 17.5164C8.21233 17.0788 7.61884 16.833 7 16.833H3.5V22.6663Z" stroke="#84694B" stroke-width="2" stroke-linecap="round" stroke-linejoin="round"/>
</g>
</svg>
