<svg width="28" height="29" viewBox="0 0 28 29" fill="none" xmlns="http://www.w3.org/2000/svg">
<g opacity="0.5">
<path d="M24.3131 5.87851C23.7173 5.28235 23.0098 4.80943 22.2311 4.48677C21.4524 4.16412 20.6177 3.99805 19.7748 3.99805C18.9319 3.99805 18.0973 4.16412 17.3186 4.48677C16.5399 4.80943 15.8324 5.28235 15.2365 5.87851L13.9998 7.11518L12.7631 5.87851C11.5595 4.67487 9.92702 3.99867 8.22481 3.99867C6.52261 3.99867 4.89012 4.67487 3.68648 5.87851C2.48284 7.08215 1.80664 8.71464 1.80664 10.4168C1.80664 12.119 2.48284 13.7515 3.68648 14.9552L4.92315 16.1918L13.9998 25.2685L23.0765 16.1918L24.3131 14.9552C24.9093 14.3593 25.3822 13.6518 25.7049 12.8731C26.0275 12.0944 26.1936 11.2597 26.1936 10.4168C26.1936 9.57394 26.0275 8.7393 25.7049 7.9606C25.3822 7.18189 24.9093 6.47439 24.3131 5.87851V5.87851Z" stroke="#84694B" stroke-width="2" stroke-linecap="round" stroke-linejoin="round"/>
</g>
</svg>
