<svg width="90" height="90" viewBox="0 0 90 90" fill="none" xmlns="http://www.w3.org/2000/svg">
<g opacity="0.5">
<mask id="path-1-inside-1_211_904" fill="white">
<path d="M13.1802 13.1802C8.58058 17.7798 5.03283 23.3219 2.78139 29.4247C0.529955 35.5275 -0.371643 42.0459 0.138719 48.5307C0.649082 55.0154 2.55927 61.3125 5.73768 66.9879C8.91608 72.6634 13.2871 77.5823 18.5497 81.4058C23.8122 85.2292 29.8411 87.8663 36.2209 89.1353C42.6008 90.4044 49.1799 90.2752 55.505 88.7566C61.8301 87.2381 67.7509 84.3664 72.8592 80.3393C77.9676 76.3122 82.1422 71.2254 85.0953 65.4296L83.0905 64.4081C80.285 69.9142 76.3192 74.7466 71.4663 78.5723C66.6133 82.3981 60.9886 85.1262 54.9798 86.5688C48.9709 88.0114 42.7207 88.1341 36.6599 86.9286C30.599 85.723 24.8716 83.2178 19.8722 79.5855C14.8728 75.9532 10.7203 71.2802 7.70079 65.8885C4.68131 60.4969 2.86663 54.5147 2.38178 48.3541C1.89694 42.1936 2.75346 36.0011 4.89232 30.2035C7.03119 24.4058 10.4016 19.1408 14.7712 14.7712L13.1802 13.1802Z"/>
</mask>
<path d="M13.1802 13.1802C8.58058 17.7798 5.03283 23.3219 2.78139 29.4247C0.529955 35.5275 -0.371643 42.0459 0.138719 48.5307C0.649082 55.0154 2.55927 61.3125 5.73768 66.9879C8.91608 72.6634 13.2871 77.5823 18.5497 81.4058C23.8122 85.2292 29.8411 87.8663 36.2209 89.1353C42.6008 90.4044 49.1799 90.2752 55.505 88.7566C61.8301 87.2381 67.7509 84.3664 72.8592 80.3393C77.9676 76.3122 82.1422 71.2254 85.0953 65.4296L83.0905 64.4081C80.285 69.9142 76.3192 74.7466 71.4663 78.5723C66.6133 82.3981 60.9886 85.1262 54.9798 86.5688C48.9709 88.0114 42.7207 88.1341 36.6599 86.9286C30.599 85.723 24.8716 83.2178 19.8722 79.5855C14.8728 75.9532 10.7203 71.2802 7.70079 65.8885C4.68131 60.4969 2.86663 54.5147 2.38178 48.3541C1.89694 42.1936 2.75346 36.0011 4.89232 30.2035C7.03119 24.4058 10.4016 19.1408 14.7712 14.7712L13.1802 13.1802Z" stroke="#BEA88E" stroke-width="4" mask="url(#path-1-inside-1_211_904)"/>
</g>
<path d="M26.25 44.5375C24.8603 42.6562 24.0974 40.3675 24.0974 38.0002C24.0974 35.0822 25.2566 32.2836 27.32 30.2202C29.3834 28.1568 32.1819 26.9977 35.1 26.9977C38.0181 26.9977 40.8166 28.1568 42.88 30.2202L45 32.3402L47.12 30.2202C48.1415 29.1982 49.3544 28.3875 50.6893 27.8344C52.0242 27.2813 53.455 26.9966 54.9 26.9966C56.345 26.9966 57.7758 27.2813 59.1107 27.8344C60.4456 28.3875 61.6585 29.1982 62.68 30.2202C63.702 31.2417 64.5127 32.4546 65.0658 33.7895C65.6189 35.1244 65.9036 36.5553 65.9036 38.0002C65.9036 39.4452 65.6189 40.876 65.0658 42.2109C64.5127 43.5459 63.702 44.7587 62.68 45.7802L60.56 47.9002L45 63.4602L34.04 52.5002" stroke="#BEA88E" stroke-width="2" stroke-linecap="round" stroke-linejoin="round"/>
<path d="M18 44.75C17.4477 44.75 17 45.1977 17 45.75C17 46.3023 17.4477 46.75 18 46.75V44.75ZM33 45.75V46.75H33.618L33.8944 46.1972L33 45.75ZM36.75 38.25L37.6987 37.9338L36.9352 35.6434L35.8556 37.8028L36.75 38.25ZM40.5 49.5L39.5513 49.8162L40.1422 51.5889L41.2894 50.1139L40.5 49.5ZM45.75 42.75V41.75H45.2609L44.9606 42.1361L45.75 42.75ZM54 43.75C54.5523 43.75 55 43.3023 55 42.75C55 42.1977 54.5523 41.75 54 41.75V43.75ZM18 46.75H33V44.75H18V46.75ZM33.8944 46.1972L37.6444 38.6972L35.8556 37.8028L32.1056 45.3028L33.8944 46.1972ZM35.8013 38.5662L39.5513 49.8162L41.4487 49.1838L37.6987 37.9338L35.8013 38.5662ZM41.2894 50.1139L46.5394 43.3639L44.9606 42.1361L39.7106 48.8861L41.2894 50.1139ZM45.75 42.75C45.75 43.75 45.75 43.75 45.7501 43.75C45.7501 43.75 45.7502 43.75 45.7503 43.75C45.7504 43.75 45.7505 43.75 45.7506 43.75C45.7507 43.75 45.7509 43.75 45.751 43.75C45.7512 43.75 45.7514 43.75 45.7516 43.75C45.7519 43.75 45.7521 43.75 45.7524 43.75C45.7526 43.75 45.7529 43.75 45.7532 43.75C45.7535 43.75 45.7538 43.75 45.7542 43.75C45.7545 43.75 45.7549 43.75 45.7553 43.75C45.7557 43.75 45.7561 43.75 45.7565 43.75C45.7569 43.75 45.7574 43.75 45.7579 43.75C45.7583 43.75 45.7588 43.75 45.7594 43.75C45.7599 43.75 45.7604 43.75 45.761 43.75C45.7615 43.75 45.7621 43.75 45.7627 43.75C45.7633 43.75 45.7639 43.75 45.7646 43.75C45.7652 43.75 45.7659 43.75 45.7666 43.75C45.7673 43.75 45.768 43.75 45.7687 43.75C45.7694 43.75 45.7702 43.75 45.7709 43.75C45.7717 43.75 45.7725 43.75 45.7733 43.75C45.7741 43.75 45.7749 43.75 45.7758 43.75C45.7766 43.75 45.7775 43.75 45.7784 43.75C45.7793 43.75 45.7802 43.75 45.7811 43.75C45.7821 43.75 45.783 43.75 45.784 43.75C45.785 43.75 45.786 43.75 45.787 43.75C45.788 43.75 45.789 43.75 45.7901 43.75C45.7911 43.75 45.7922 43.75 45.7933 43.75C45.7944 43.75 45.7955 43.75 45.7967 43.75C45.7978 43.75 45.7989 43.75 45.8001 43.75C45.8013 43.75 45.8025 43.75 45.8037 43.75C45.8049 43.75 45.8062 43.75 45.8074 43.75C45.8087 43.75 45.8099 43.75 45.8112 43.75C45.8125 43.75 45.8139 43.75 45.8152 43.75C45.8165 43.75 45.8179 43.75 45.8193 43.75C45.8206 43.75 45.822 43.75 45.8234 43.75C45.8248 43.75 45.8263 43.75 45.8277 43.75C45.8292 43.75 45.8307 43.75 45.8322 43.75C45.8336 43.75 45.8352 43.75 45.8367 43.75C45.8382 43.75 45.8398 43.75 45.8413 43.75C45.8429 43.75 45.8445 43.75 45.8461 43.75C45.8477 43.75 45.8493 43.75 45.851 43.75C45.8526 43.75 45.8543 43.75 45.856 43.75C45.8577 43.75 45.8594 43.75 45.8611 43.75C45.8628 43.75 45.8646 43.75 45.8663 43.75C45.8681 43.75 45.8699 43.75 45.8717 43.75C45.8735 43.75 45.8753 43.75 45.8771 43.75C45.879 43.75 45.8808 43.75 45.8827 43.75C45.8846 43.75 45.8865 43.75 45.8884 43.75C45.8903 43.75 45.8922 43.75 45.8942 43.75C45.8961 43.75 45.8981 43.75 45.9001 43.75C45.9021 43.75 45.9041 43.75 45.9061 43.75C45.9082 43.75 45.9102 43.75 45.9123 43.75C45.9143 43.75 45.9164 43.75 45.9185 43.75C45.9206 43.75 45.9227 43.75 45.9249 43.75C45.927 43.75 45.9292 43.75 45.9313 43.75C45.9335 43.75 45.9357 43.75 45.9379 43.75C45.9401 43.75 45.9423 43.75 45.9446 43.75C45.9468 43.75 45.9491 43.75 45.9514 43.75C45.9537 43.75 45.956 43.75 45.9583 43.75C45.9606 43.75 45.9629 43.75 45.9653 43.75C45.9676 43.75 45.97 43.75 45.9724 43.75C45.9748 43.75 45.9772 43.75 45.9796 43.75C45.9821 43.75 45.9845 43.75 45.987 43.75C45.9894 43.75 45.9919 43.75 45.9944 43.75C45.9969 43.75 45.9994 43.75 46.002 43.75C46.0045 43.75 46.007 43.75 46.0096 43.75C46.0122 43.75 46.0148 43.75 46.0174 43.75C46.02 43.75 46.0226 43.75 46.0252 43.75C46.0279 43.75 46.0305 43.75 46.0332 43.75C46.0359 43.75 46.0386 43.75 46.0413 43.75C46.044 43.75 46.0467 43.75 46.0494 43.75C46.0522 43.75 46.0549 43.75 46.0577 43.75C46.0605 43.75 46.0633 43.75 46.0661 43.75C46.0689 43.75 46.0717 43.75 46.0746 43.75C46.0774 43.75 46.0803 43.75 46.0832 43.75C46.086 43.75 46.0889 43.75 46.0919 43.75C46.0948 43.75 46.0977 43.75 46.1006 43.75C46.1036 43.75 46.1066 43.75 46.1095 43.75C46.1125 43.75 46.1155 43.75 46.1185 43.75C46.1215 43.75 46.1246 43.75 46.1276 43.75C46.1307 43.75 46.1337 43.75 46.1368 43.75C46.1399 43.75 46.143 43.75 46.1461 43.75C46.1492 43.75 46.1523 43.75 46.1555 43.75C46.1586 43.75 46.1618 43.75 46.165 43.75C46.1682 43.75 46.1714 43.75 46.1746 43.75C46.1778 43.75 46.181 43.75 46.1842 43.75C46.1875 43.75 46.1908 43.75 46.194 43.75C46.1973 43.75 46.2006 43.75 46.2039 43.75C46.2072 43.75 46.2105 43.75 46.2139 43.75C46.2172 43.75 46.2206 43.75 46.224 43.75C46.2273 43.75 46.2307 43.75 46.2341 43.75C46.2375 43.75 46.241 43.75 46.2444 43.75C46.2478 43.75 46.2513 43.75 46.2547 43.75C46.2582 43.75 46.2617 43.75 46.2652 43.75C46.2687 43.75 46.2722 43.75 46.2757 43.75C46.2793 43.75 46.2828 43.75 46.2864 43.75C46.2899 43.75 46.2935 43.75 46.2971 43.75C46.3007 43.75 46.3043 43.75 46.3079 43.75C46.3116 43.75 46.3152 43.75 46.3189 43.75C46.3225 43.75 46.3262 43.75 46.3299 43.75C46.3336 43.75 46.3373 43.75 46.341 43.75C46.3447 43.75 46.3484 43.75 46.3522 43.75C46.3559 43.75 46.3597 43.75 46.3635 43.75C46.3672 43.75 46.371 43.75 46.3748 43.75C46.3786 43.75 46.3825 43.75 46.3863 43.75C46.3901 43.75 46.394 43.75 46.3979 43.75C46.4017 43.75 46.4056 43.75 46.4095 43.75C46.4134 43.75 46.4173 43.75 46.4212 43.75C46.4252 43.75 46.4291 43.75 46.4331 43.75C46.437 43.75 46.441 43.75 46.445 43.75C46.449 43.75 46.453 43.75 46.457 43.75C46.461 43.75 46.465 43.75 46.4691 43.75C46.4731 43.75 46.4772 43.75 46.4812 43.75C46.4853 43.75 46.4894 43.75 46.4935 43.75C46.4976 43.75 46.5017 43.75 46.5058 43.75C46.51 43.75 46.5141 43.75 46.5183 43.75C46.5224 43.75 46.5266 43.75 46.5308 43.75C46.535 43.75 46.5392 43.75 46.5434 43.75C46.5476 43.75 46.5518 43.75 46.5561 43.75C46.5603 43.75 46.5646 43.75 46.5688 43.75C46.5731 43.75 46.5774 43.75 46.5817 43.75C46.586 43.75 46.5903 43.75 46.5946 43.75C46.599 43.75 46.6033 43.75 46.6077 43.75C46.612 43.75 46.6164 43.75 46.6208 43.75C46.6251 43.75 46.6295 43.75 46.6339 43.75C46.6384 43.75 46.6428 43.75 46.6472 43.75C46.6516 43.75 46.6561 43.75 46.6606 43.75C46.665 43.75 46.6695 43.75 46.674 43.75C46.6785 43.75 46.683 43.75 46.6875 43.75C46.692 43.75 46.6965 43.75 46.7011 43.75C46.7056 43.75 46.7102 43.75 46.7148 43.75C46.7193 43.75 46.7239 43.75 46.7285 43.75C46.7331 43.75 46.7377 43.75 46.7423 43.75C46.747 43.75 46.7516 43.75 46.7562 43.75C46.7609 43.75 46.7656 43.75 46.7702 43.75C46.7749 43.75 46.7796 43.75 46.7843 43.75C46.789 43.75 46.7937 43.75 46.7984 43.75C46.8032 43.75 46.8079 43.75 46.8126 43.75C46.8174 43.75 46.8222 43.75 46.8269 43.75C46.8317 43.75 46.8365 43.75 46.8413 43.75C46.8461 43.75 46.8509 43.75 46.8557 43.75C46.8606 43.75 46.8654 43.75 46.8703 43.75C46.8751 43.75 46.88 43.75 46.8849 43.75C46.8897 43.75 46.8946 43.75 46.8995 43.75C46.9044 43.75 46.9093 43.75 46.9143 43.75C46.9192 43.75 46.9241 43.75 46.9291 43.75C46.934 43.75 46.939 43.75 46.944 43.75C46.949 43.75 46.9539 43.75 46.9589 43.75C46.9639 43.75 46.969 43.75 46.974 43.75C46.979 43.75 46.984 43.75 46.9891 43.75C46.9941 43.75 46.9992 43.75 47.0043 43.75C47.0093 43.75 47.0144 43.75 47.0195 43.75C47.0246 43.75 47.0297 43.75 47.0348 43.75C47.04 43.75 47.0451 43.75 47.0502 43.75C47.0554 43.75 47.0605 43.75 47.0657 43.75C47.0709 43.75 47.076 43.75 47.0812 43.75C47.0864 43.75 47.0916 43.75 47.0968 43.75C47.102 43.75 47.1073 43.75 47.1125 43.75C47.1177 43.75 47.123 43.75 47.1282 43.75C47.1335 43.75 47.1388 43.75 47.144 43.75C47.1493 43.75 47.1546 43.75 47.1599 43.75C47.1652 43.75 47.1705 43.75 47.1759 43.75C47.1812 43.75 47.1865 43.75 47.1919 43.75C47.1972 43.75 47.2026 43.75 47.2079 43.75C47.2133 43.75 47.2187 43.75 47.2241 43.75C47.2295 43.75 47.2349 43.75 47.2403 43.75C47.2457 43.75 47.2511 43.75 47.2566 43.75C47.262 43.75 47.2674 43.75 47.2729 43.75C47.2783 43.75 47.2838 43.75 47.2893 43.75C47.2948 43.75 47.3003 43.75 47.3058 43.75C47.3113 43.75 47.3168 43.75 47.3223 43.75C47.3278 43.75 47.3333 43.75 47.3389 43.75C47.3444 43.75 47.35 43.75 47.3555 43.75C47.3611 43.75 47.3667 43.75 47.3722 43.75C47.3778 43.75 47.3834 43.75 47.389 43.75C47.3946 43.75 47.4002 43.75 47.4059 43.75C47.4115 43.75 47.4171 43.75 47.4228 43.75C47.4284 43.75 47.4341 43.75 47.4397 43.75C47.4454 43.75 47.4511 43.75 47.4567 43.75C47.4624 43.75 47.4681 43.75 47.4738 43.75C47.4795 43.75 47.4852 43.75 47.491 43.75C47.4967 43.75 47.5024 43.75 47.5082 43.75C47.5139 43.75 47.5197 43.75 47.5254 43.75C47.5312 43.75 47.537 43.75 47.5427 43.75C47.5485 43.75 47.5543 43.75 47.5601 43.75C47.5659 43.75 47.5717 43.75 47.5776 43.75C47.5834 43.75 47.5892 43.75 47.595 43.75C47.6009 43.75 47.6067 43.75 47.6126 43.75C47.6185 43.75 47.6243 43.75 47.6302 43.75C47.6361 43.75 47.642 43.75 47.6479 43.75C47.6538 43.75 47.6597 43.75 47.6656 43.75C47.6715 43.75 47.6774 43.75 47.6833 43.75C47.6893 43.75 47.6952 43.75 47.7012 43.75C47.7071 43.75 47.7131 43.75 47.7191 43.75C47.725 43.75 47.731 43.75 47.737 43.75C47.743 43.75 47.749 43.75 47.755 43.75C47.761 43.75 47.767 43.75 47.773 43.75C47.779 43.75 47.7851 43.75 47.7911 43.75C47.7971 43.75 47.8032 43.75 47.8093 43.75C47.8153 43.75 47.8214 43.75 47.8274 43.75C47.8335 43.75 47.8396 43.75 47.8457 43.75C47.8518 43.75 47.8579 43.75 47.864 43.75C47.8701 43.75 47.8762 43.75 47.8824 43.75C47.8885 43.75 47.8946 43.75 47.9008 43.75C47.9069 43.75 47.913 43.75 47.9192 43.75C47.9254 43.75 47.9315 43.75 47.9377 43.75C47.9439 43.75 47.9501 43.75 47.9563 43.75C47.9624 43.75 47.9686 43.75 47.9749 43.75C47.9811 43.75 47.9873 43.75 47.9935 43.75C47.9997 43.75 48.006 43.75 48.0122 43.75C48.0184 43.75 48.0247 43.75 48.0309 43.75C48.0372 43.75 48.0435 43.75 48.0497 43.75C48.056 43.75 48.0623 43.75 48.0686 43.75C48.0749 43.75 48.0811 43.75 48.0874 43.75C48.0937 43.75 48.1001 43.75 48.1064 43.75C48.1127 43.75 48.119 43.75 48.1253 43.75C48.1317 43.75 48.138 43.75 48.1444 43.75C48.1507 43.75 48.1571 43.75 48.1634 43.75C48.1698 43.75 48.1762 43.75 48.1825 43.75C48.1889 43.75 48.1953 43.75 48.2017 43.75C48.2081 43.75 48.2145 43.75 48.2209 43.75C48.2273 43.75 48.2337 43.75 48.2401 43.75C48.2465 43.75 48.253 43.75 48.2594 43.75C48.2658 43.75 48.2723 43.75 48.2787 43.75C48.2852 43.75 48.2916 43.75 48.2981 43.75C48.3046 43.75 48.311 43.75 48.3175 43.75C48.324 43.75 48.3305 43.75 48.337 43.75C48.3434 43.75 48.3499 43.75 48.3564 43.75C48.3629 43.75 48.3695 43.75 48.376 43.75C48.3825 43.75 48.389 43.75 48.3955 43.75C48.4021 43.75 48.4086 43.75 48.4151 43.75C48.4217 43.75 48.4282 43.75 48.4348 43.75C48.4413 43.75 48.4479 43.75 48.4545 43.75C48.461 43.75 48.4676 43.75 48.4742 43.75C48.4808 43.75 48.4874 43.75 48.494 43.75C48.5006 43.75 48.5072 43.75 48.5138 43.75C48.5204 43.75 48.527 43.75 48.5336 43.75C48.5402 43.75 48.5468 43.75 48.5535 43.75C48.5601 43.75 48.5667 43.75 48.5734 43.75C48.58 43.75 48.5867 43.75 48.5933 43.75C48.6 43.75 48.6066 43.75 48.6133 43.75C48.62 43.75 48.6266 43.75 48.6333 43.75C48.64 43.75 48.6467 43.75 48.6534 43.75C48.6601 43.75 48.6668 43.75 48.6735 43.75C48.6802 43.75 48.6869 43.75 48.6936 43.75C48.7003 43.75 48.707 43.75 48.7137 43.75C48.7205 43.75 48.7272 43.75 48.7339 43.75C48.7407 43.75 48.7474 43.75 48.7541 43.75C48.7609 43.75 48.7676 43.75 48.7744 43.75C48.7811 43.75 48.7879 43.75 48.7947 43.75C48.8014 43.75 48.8082 43.75 48.815 43.75C48.8218 43.75 48.8285 43.75 48.8353 43.75C48.8421 43.75 48.8489 43.75 48.8557 43.75C48.8625 43.75 48.8693 43.75 48.8761 43.75C48.8829 43.75 48.8897 43.75 48.8965 43.75C48.9034 43.75 48.9102 43.75 48.917 43.75C48.9238 43.75 48.9307 43.75 48.9375 43.75C48.9443 43.75 48.9512 43.75 48.958 43.75C48.9649 43.75 48.9717 43.75 48.9786 43.75C48.9854 43.75 48.9923 43.75 48.9992 43.75C49.006 43.75 49.0129 43.75 49.0198 43.75C49.0266 43.75 49.0335 43.75 49.0404 43.75C49.0473 43.75 49.0542 43.75 49.061 43.75C49.0679 43.75 49.0748 43.75 49.0817 43.75C49.0886 43.75 49.0955 43.75 49.1024 43.75C49.1094 43.75 49.1163 43.75 49.1232 43.75C49.1301 43.75 49.137 43.75 49.1439 43.75C49.1509 43.75 49.1578 43.75 49.1647 43.75C49.1717 43.75 49.1786 43.75 49.1855 43.75C49.1925 43.75 49.1994 43.75 49.2064 43.75C49.2133 43.75 49.2203 43.75 49.2272 43.75C49.2342 43.75 49.2411 43.75 49.2481 43.75C49.2551 43.75 49.262 43.75 49.269 43.75C49.276 43.75 49.283 43.75 49.2899 43.75C49.2969 43.75 49.3039 43.75 49.3109 43.75C49.3179 43.75 49.3249 43.75 49.3319 43.75C49.3388 43.75 49.3458 43.75 49.3528 43.75C49.3598 43.75 49.3668 43.75 49.3739 43.75C49.3809 43.75 49.3879 43.75 49.3949 43.75C49.4019 43.75 49.4089 43.75 49.4159 43.75C49.423 43.75 49.43 43.75 49.437 43.75C49.444 43.75 49.4511 43.75 49.4581 43.75C49.4651 43.75 49.4722 43.75 49.4792 43.75C49.4862 43.75 49.4933 43.75 49.5003 43.75C49.5074 43.75 49.5144 43.75 49.5215 43.75C49.5285 43.75 49.5356 43.75 49.5426 43.75C49.5497 43.75 49.5567 43.75 49.5638 43.75C49.5709 43.75 49.5779 43.75 49.585 43.75C49.5921 43.75 49.5991 43.75 49.6062 43.75C49.6133 43.75 49.6203 43.75 49.6274 43.75C49.6345 43.75 49.6416 43.75 49.6487 43.75C49.6558 43.75 49.6628 43.75 49.6699 43.75C49.677 43.75 49.6841 43.75 49.6912 43.75C49.6983 43.75 49.7054 43.75 49.7125 43.75C49.7196 43.75 49.7267 43.75 49.7338 43.75C49.7409 43.75 49.748 43.75 49.7551 43.75C49.7622 43.75 49.7693 43.75 49.7764 43.75C49.7835 43.75 49.7906 43.75 49.7977 43.75C49.8049 43.75 49.812 43.75 49.8191 43.75C49.8262 43.75 49.8333 43.75 49.8405 43.75C49.8476 43.75 49.8547 43.75 49.8618 43.75C49.869 43.75 49.8761 43.75 49.8832 43.75C49.8903 43.75 49.8975 43.75 49.9046 43.75C49.9117 43.75 49.9189 43.75 49.926 43.75C49.9331 43.75 49.9403 43.75 49.9474 43.75C49.9546 43.75 49.9617 43.75 49.9688 43.75C49.976 43.75 49.9831 43.75 49.9903 43.75C49.9974 43.75 50.0046 43.75 50.0117 43.75C50.0189 43.75 50.026 43.75 50.0332 43.75C50.0403 43.75 50.0475 43.75 50.0546 43.75C50.0618 43.75 50.0689 43.75 50.0761 43.75C50.0832 43.75 50.0904 43.75 50.0975 43.75C50.1047 43.75 50.1119 43.75 50.119 43.75C50.1262 43.75 50.1333 43.75 50.1405 43.75C50.1477 43.75 50.1548 43.75 50.162 43.75C50.1692 43.75 50.1763 43.75 50.1835 43.75C50.1907 43.75 50.1978 43.75 50.205 43.75C50.2122 43.75 50.2193 43.75 50.2265 43.75C50.2337 43.75 50.2408 43.75 50.248 43.75C50.2552 43.75 50.2623 43.75 50.2695 43.75C50.2767 43.75 50.2838 43.75 50.291 43.75C50.2982 43.75 50.3054 43.75 50.3125 43.75C50.3197 43.75 50.3269 43.75 50.334 43.75C50.3412 43.75 50.3484 43.75 50.3556 43.75C50.3627 43.75 50.3699 43.75 50.3771 43.75C50.3843 43.75 50.3914 43.75 50.3986 43.75C50.4058 43.75 50.413 43.75 50.4201 43.75C50.4273 43.75 50.4345 43.75 50.4417 43.75C50.4488 43.75 50.456 43.75 50.4632 43.75C50.4704 43.75 50.4775 43.75 50.4847 43.75C50.4919 43.75 50.4991 43.75 50.5062 43.75C50.5134 43.75 50.5206 43.75 50.5278 43.75C50.5349 43.75 50.5421 43.75 50.5493 43.75C50.5565 43.75 50.5636 43.75 50.5708 43.75C50.578 43.75 50.5851 43.75 50.5923 43.75C50.5995 43.75 50.6067 43.75 50.6138 43.75C50.621 43.75 50.6282 43.75 50.6353 43.75C50.6425 43.75 50.6497 43.75 50.6569 43.75C50.664 43.75 50.6712 43.75 50.6784 43.75C50.6855 43.75 50.6927 43.75 50.6999 43.75C50.707 43.75 50.7142 43.75 50.7213 43.75C50.7285 43.75 50.7357 43.75 50.7428 43.75C50.75 43.75 50.7572 43.75 50.7643 43.75C50.7715 43.75 50.7786 43.75 50.7858 43.75C50.793 43.75 50.8001 43.75 50.8073 43.75C50.8144 43.75 50.8216 43.75 50.8287 43.75C50.8359 43.75 50.843 43.75 50.8502 43.75C50.8573 43.75 50.8645 43.75 50.8716 43.75C50.8788 43.75 50.8859 43.75 50.8931 43.75C50.9002 43.75 50.9074 43.75 50.9145 43.75C50.9217 43.75 50.9288 43.75 50.9359 43.75C50.9431 43.75 50.9502 43.75 50.9574 43.75C50.9645 43.75 50.9716 43.75 50.9788 43.75C50.9859 43.75 50.993 43.75 51.0002 43.75C51.0073 43.75 51.0144 43.75 51.0215 43.75C51.0287 43.75 51.0358 43.75 51.0429 43.75C51.05 43.75 51.0572 43.75 51.0643 43.75C51.0714 43.75 51.0785 43.75 51.0856 43.75C51.0927 43.75 51.0999 43.75 51.107 43.75C51.1141 43.75 51.1212 43.75 51.1283 43.75C51.1354 43.75 51.1425 43.75 51.1496 43.75C51.1567 43.75 51.1638 43.75 51.1709 43.75C51.178 43.75 51.1851 43.75 51.1922 43.75C51.1993 43.75 51.2064 43.75 51.2135 43.75C51.2206 43.75 51.2276 43.75 51.2347 43.75C51.2418 43.75 51.2489 43.75 51.256 43.75C51.2631 43.75 51.2701 43.75 51.2772 43.75C51.2843 43.75 51.2913 43.75 51.2984 43.75C51.3055 43.75 51.3125 43.75 51.3196 43.75C51.3267 43.75 51.3337 43.75 51.3408 43.75C51.3478 43.75 51.3549 43.75 51.362 43.75C51.369 43.75 51.3761 43.75 51.3831 43.75C51.3901 43.75 51.3972 43.75 51.4042 43.75C51.4113 43.75 51.4183 43.75 51.4253 43.75C51.4324 43.75 51.4394 43.75 51.4464 43.75C51.4535 43.75 51.4605 43.75 51.4675 43.75C51.4745 43.75 51.4815 43.75 51.4886 43.75C51.4956 43.75 51.5026 43.75 51.5096 43.75C51.5166 43.75 51.5236 43.75 51.5306 43.75C51.5376 43.75 51.5446 43.75 51.5516 43.75C51.5586 43.75 51.5656 43.75 51.5726 43.75C51.5796 43.75 51.5865 43.75 51.5935 43.75C51.6005 43.75 51.6075 43.75 51.6145 43.75C51.6214 43.75 51.6284 43.75 51.6354 43.75C51.6423 43.75 51.6493 43.75 51.6562 43.75C51.6632 43.75 51.6702 43.75 51.6771 43.75C51.6841 43.75 51.691 43.75 51.698 43.75C51.7049 43.75 51.7118 43.75 51.7188 43.75C51.7257 43.75 51.7326 43.75 51.7396 43.75C51.7465 43.75 51.7534 43.75 51.7603 43.75C51.7672 43.75 51.7742 43.75 51.7811 43.75C51.788 43.75 51.7949 43.75 51.8018 43.75C51.8087 43.75 51.8156 43.75 51.8225 43.75C51.8294 43.75 51.8363 43.75 51.8431 43.75C51.85 43.75 51.8569 43.75 51.8638 43.75C51.8707 43.75 51.8775 43.75 51.8844 43.75C51.8913 43.75 51.8981 43.75 51.905 43.75C51.9118 43.75 51.9187 43.75 51.9255 43.75C51.9324 43.75 51.9392 43.75 51.9461 43.75C51.9529 43.75 51.9597 43.75 51.9666 43.75C51.9734 43.75 51.9802 43.75 51.987 43.75C51.9939 43.75 52.0007 43.75 52.0075 43.75C52.0143 43.75 52.0211 43.75 52.0279 43.75C52.0347 43.75 52.0415 43.75 52.0483 43.75C52.0551 43.75 52.0618 43.75 52.0686 43.75C52.0754 43.75 52.0822 43.75 52.0889 43.75C52.0957 43.75 52.1025 43.75 52.1092 43.75C52.116 43.75 52.1227 43.75 52.1295 43.75C52.1362 43.75 52.143 43.75 52.1497 43.75C52.1564 43.75 52.1632 43.75 52.1699 43.75C52.1766 43.75 52.1833 43.75 52.1901 43.75C52.1968 43.75 52.2035 43.75 52.2102 43.75C52.2169 43.75 52.2236 43.75 52.2303 43.75C52.237 43.75 52.2437 43.75 52.2503 43.75C52.257 43.75 52.2637 43.75 52.2704 43.75C52.277 43.75 52.2837 43.75 52.2903 43.75C52.297 43.75 52.3037 43.75 52.3103 43.75C52.3169 43.75 52.3236 43.75 52.3302 43.75C52.3369 43.75 52.3435 43.75 52.3501 43.75C52.3567 43.75 52.3633 43.75 52.3699 43.75C52.3766 43.75 52.3832 43.75 52.3898 43.75C52.3964 43.75 52.4029 43.75 52.4095 43.75C52.4161 43.75 52.4227 43.75 52.4293 43.75C52.4358 43.75 52.4424 43.75 52.449 43.75C52.4555 43.75 52.4621 43.75 52.4686 43.75C52.4752 43.75 52.4817 43.75 52.4882 43.75C52.4948 43.75 52.5013 43.75 52.5078 43.75C52.5143 43.75 52.5208 43.75 52.5273 43.75C52.5338 43.75 52.5403 43.75 52.5468 43.75C52.5533 43.75 52.5598 43.75 52.5663 43.75C52.5728 43.75 52.5792 43.75 52.5857 43.75C52.5922 43.75 52.5986 43.75 52.6051 43.75C52.6115 43.75 52.618 43.75 52.6244 43.75C52.6309 43.75 52.6373 43.75 52.6437 43.75C52.6501 43.75 52.6566 43.75 52.663 43.75C52.6694 43.75 52.6758 43.75 52.6822 43.75C52.6886 43.75 52.6949 43.75 52.7013 43.75C52.7077 43.75 52.7141 43.75 52.7204 43.75C52.7268 43.75 52.7332 43.75 52.7395 43.75C52.7459 43.75 52.7522 43.75 52.7585 43.75C52.7649 43.75 52.7712 43.75 52.7775 43.75C52.7839 43.75 52.7902 43.75 52.7965 43.75C52.8028 43.75 52.8091 43.75 52.8154 43.75C52.8217 43.75 52.8279 43.75 52.8342 43.75C52.8405 43.75 52.8467 43.75 52.853 43.75C52.8593 43.75 52.8655 43.75 52.8718 43.75C52.878 43.75 52.8842 43.75 52.8905 43.75C52.8967 43.75 52.9029 43.75 52.9091 43.75C52.9153 43.75 52.9215 43.75 52.9277 43.75C52.9339 43.75 52.9401 43.75 52.9463 43.75C52.9525 43.75 52.9586 43.75 52.9648 43.75C52.971 43.75 52.9771 43.75 52.9833 43.75C52.9894 43.75 52.9956 43.75 53.0017 43.75C53.0078 43.75 53.0139 43.75 53.02 43.75C53.0262 43.75 53.0323 43.75 53.0384 43.75C53.0445 43.75 53.0505 43.75 53.0566 43.75C53.0627 43.75 53.0688 43.75 53.0748 43.75C53.0809 43.75 53.0869 43.75 53.093 43.75C53.099 43.75 53.1051 43.75 53.1111 43.75C53.1171 43.75 53.1231 43.75 53.1291 43.75C53.1351 43.75 53.1411 43.75 53.1471 43.75C53.1531 43.75 53.1591 43.75 53.1651 43.75C53.1711 43.75 53.177 43.75 53.183 43.75C53.1889 43.75 53.1949 43.75 53.2008 43.75C53.2068 43.75 53.2127 43.75 53.2186 43.75C53.2245 43.75 53.2304 43.75 53.2363 43.75C53.2422 43.75 53.2481 43.75 53.254 43.75C53.2599 43.75 53.2658 43.75 53.2716 43.75C53.2775 43.75 53.2833 43.75 53.2892 43.75C53.295 43.75 53.3009 43.75 53.3067 43.75C53.3125 43.75 53.3183 43.75 53.3241 43.75C53.3299 43.75 53.3357 43.75 53.3415 43.75C53.3473 43.75 53.3531 43.75 53.3588 43.75C53.3646 43.75 53.3704 43.75 53.3761 43.75C53.3819 43.75 53.3876 43.75 53.3933 43.75C53.3991 43.75 53.4048 43.75 53.4105 43.75C53.4162 43.75 53.4219 43.75 53.4276 43.75C53.4333 43.75 53.4389 43.75 53.4446 43.75C53.4503 43.75 53.4559 43.75 53.4616 43.75C53.4672 43.75 53.4729 43.75 53.4785 43.75C53.4841 43.75 53.4898 43.75 53.4954 43.75C53.501 43.75 53.5066 43.75 53.5122 43.75C53.5177 43.75 53.5233 43.75 53.5289 43.75C53.5345 43.75 53.54 43.75 53.5456 43.75C53.5511 43.75 53.5566 43.75 53.5622 43.75C53.5677 43.75 53.5732 43.75 53.5787 43.75C53.5842 43.75 53.5897 43.75 53.5952 43.75C53.6007 43.75 53.6061 43.75 53.6116 43.75C53.6171 43.75 53.6225 43.75 53.6279 43.75C53.6334 43.75 53.6388 43.75 53.6442 43.75C53.6496 43.75 53.6551 43.75 53.6604 43.75C53.6658 43.75 53.6712 43.75 53.6766 43.75C53.682 43.75 53.6873 43.75 53.6927 43.75C53.698 43.75 53.7034 43.75 53.7087 43.75C53.714 43.75 53.7194 43.75 53.7247 43.75C53.73 43.75 53.7353 43.75 53.7406 43.75C53.7458 43.75 53.7511 43.75 53.7564 43.75C53.7616 43.75 53.7669 43.75 53.7721 43.75C53.7774 43.75 53.7826 43.75 53.7878 43.75C53.793 43.75 53.7982 43.75 53.8034 43.75C53.8086 43.75 53.8138 43.75 53.819 43.75C53.8242 43.75 53.8293 43.75 53.8345 43.75C53.8396 43.75 53.8447 43.75 53.8499 43.75C53.855 43.75 53.8601 43.75 53.8652 43.75C53.8703 43.75 53.8754 43.75 53.8805 43.75C53.8855 43.75 53.8906 43.75 53.8957 43.75C53.9007 43.75 53.9058 43.75 53.9108 43.75C53.9158 43.75 53.9208 43.75 53.9258 43.75C53.9308 43.75 53.9358 43.75 53.9408 43.75C53.9458 43.75 53.9508 43.75 53.9557 43.75C53.9607 43.75 53.9656 43.75 53.9706 43.75C53.9755 43.75 53.9804 43.75 53.9853 43.75C53.9902 43.75 53.9951 43.75 54 43.75V41.75C53.9951 41.75 53.9902 41.75 53.9853 41.75C53.9804 41.75 53.9755 41.75 53.9706 41.75C53.9656 41.75 53.9607 41.75 53.9557 41.75C53.9508 41.75 53.9458 41.75 53.9408 41.75C53.9358 41.75 53.9308 41.75 53.9258 41.75C53.9208 41.75 53.9158 41.75 53.9108 41.75C53.9058 41.75 53.9007 41.75 53.8957 41.75C53.8906 41.75 53.8855 41.75 53.8805 41.75C53.8754 41.75 53.8703 41.75 53.8652 41.75C53.8601 41.75 53.855 41.75 53.8499 41.75C53.8447 41.75 53.8396 41.75 53.8345 41.75C53.8293 41.75 53.8242 41.75 53.819 41.75C53.8138 41.75 53.8086 41.75 53.8034 41.75C53.7982 41.75 53.793 41.75 53.7878 41.75C53.7826 41.75 53.7774 41.75 53.7721 41.75C53.7669 41.75 53.7616 41.75 53.7564 41.75C53.7511 41.75 53.7458 41.75 53.7406 41.75C53.7353 41.75 53.73 41.75 53.7247 41.75C53.7194 41.75 53.714 41.75 53.7087 41.75C53.7034 41.75 53.698 41.75 53.6927 41.75C53.6873 41.75 53.682 41.75 53.6766 41.75C53.6712 41.75 53.6658 41.75 53.6604 41.75C53.6551 41.75 53.6496 41.75 53.6442 41.75C53.6388 41.75 53.6334 41.75 53.6279 41.75C53.6225 41.75 53.6171 41.75 53.6116 41.75C53.6061 41.75 53.6007 41.75 53.5952 41.75C53.5897 41.75 53.5842 41.75 53.5787 41.75C53.5732 41.75 53.5677 41.75 53.5622 41.75C53.5566 41.75 53.5511 41.75 53.5456 41.75C53.54 41.75 53.5345 41.75 53.5289 41.75C53.5233 41.75 53.5177 41.75 53.5122 41.75C53.5066 41.75 53.501 41.75 53.4954 41.75C53.4898 41.75 53.4841 41.75 53.4785 41.75C53.4729 41.75 53.4672 41.75 53.4616 41.75C53.4559 41.75 53.4503 41.75 53.4446 41.75C53.4389 41.75 53.4333 41.75 53.4276 41.75C53.4219 41.75 53.4162 41.75 53.4105 41.75C53.4048 41.75 53.3991 41.75 53.3933 41.75C53.3876 41.75 53.3819 41.75 53.3761 41.75C53.3704 41.75 53.3646 41.75 53.3588 41.75C53.3531 41.75 53.3473 41.75 53.3415 41.75C53.3357 41.75 53.3299 41.75 53.3241 41.75C53.3183 41.75 53.3125 41.75 53.3067 41.75C53.3009 41.75 53.295 41.75 53.2892 41.75C53.2833 41.75 53.2775 41.75 53.2716 41.75C53.2658 41.75 53.2599 41.75 53.254 41.75C53.2481 41.75 53.2422 41.75 53.2363 41.75C53.2304 41.75 53.2245 41.75 53.2186 41.75C53.2127 41.75 53.2068 41.75 53.2008 41.75C53.1949 41.75 53.1889 41.75 53.183 41.75C53.177 41.75 53.1711 41.75 53.1651 41.75C53.1591 41.75 53.1531 41.75 53.1471 41.75C53.1411 41.75 53.1351 41.75 53.1291 41.75C53.1231 41.75 53.1171 41.75 53.1111 41.75C53.1051 41.75 53.099 41.75 53.093 41.75C53.0869 41.75 53.0809 41.75 53.0748 41.75C53.0688 41.75 53.0627 41.75 53.0566 41.75C53.0505 41.75 53.0445 41.75 53.0384 41.75C53.0323 41.75 53.0262 41.75 53.02 41.75C53.0139 41.75 53.0078 41.75 53.0017 41.75C52.9956 41.75 52.9894 41.75 52.9833 41.75C52.9771 41.75 52.971 41.75 52.9648 41.75C52.9586 41.75 52.9525 41.75 52.9463 41.75C52.9401 41.75 52.9339 41.75 52.9277 41.75C52.9215 41.75 52.9153 41.75 52.9091 41.75C52.9029 41.75 52.8967 41.75 52.8905 41.75C52.8842 41.75 52.878 41.75 52.8718 41.75C52.8655 41.75 52.8593 41.75 52.853 41.75C52.8467 41.75 52.8405 41.75 52.8342 41.75C52.8279 41.75 52.8217 41.75 52.8154 41.75C52.8091 41.75 52.8028 41.75 52.7965 41.75C52.7902 41.75 52.7839 41.75 52.7775 41.75C52.7712 41.75 52.7649 41.75 52.7585 41.75C52.7522 41.75 52.7459 41.75 52.7395 41.75C52.7332 41.75 52.7268 41.75 52.7204 41.75C52.7141 41.75 52.7077 41.75 52.7013 41.75C52.6949 41.75 52.6886 41.75 52.6822 41.75C52.6758 41.75 52.6694 41.75 52.663 41.75C52.6566 41.75 52.6501 41.75 52.6437 41.75C52.6373 41.75 52.6309 41.75 52.6244 41.75C52.618 41.75 52.6115 41.75 52.6051 41.75C52.5986 41.75 52.5922 41.75 52.5857 41.75C52.5792 41.75 52.5728 41.75 52.5663 41.75C52.5598 41.75 52.5533 41.75 52.5468 41.75C52.5403 41.75 52.5338 41.75 52.5273 41.75C52.5208 41.75 52.5143 41.75 52.5078 41.75C52.5013 41.75 52.4948 41.75 52.4882 41.75C52.4817 41.75 52.4752 41.75 52.4686 41.75C52.4621 41.75 52.4555 41.75 52.449 41.75C52.4424 41.75 52.4358 41.75 52.4293 41.75C52.4227 41.75 52.4161 41.75 52.4095 41.75C52.4029 41.75 52.3964 41.75 52.3898 41.75C52.3832 41.75 52.3766 41.75 52.3699 41.75C52.3633 41.75 52.3567 41.75 52.3501 41.75C52.3435 41.75 52.3369 41.75 52.3302 41.75C52.3236 41.75 52.3169 41.75 52.3103 41.75C52.3037 41.75 52.297 41.75 52.2903 41.75C52.2837 41.75 52.277 41.75 52.2704 41.75C52.2637 41.75 52.257 41.75 52.2503 41.75C52.2437 41.75 52.237 41.75 52.2303 41.75C52.2236 41.75 52.2169 41.75 52.2102 41.75C52.2035 41.75 52.1968 41.75 52.1901 41.75C52.1833 41.75 52.1766 41.75 52.1699 41.75C52.1632 41.75 52.1564 41.75 52.1497 41.75C52.143 41.75 52.1362 41.75 52.1295 41.75C52.1227 41.75 52.116 41.75 52.1092 41.75C52.1025 41.75 52.0957 41.75 52.0889 41.75C52.0822 41.75 52.0754 41.75 52.0686 41.75C52.0618 41.75 52.0551 41.75 52.0483 41.75C52.0415 41.75 52.0347 41.75 52.0279 41.75C52.0211 41.75 52.0143 41.75 52.0075 41.75C52.0007 41.75 51.9939 41.75 51.987 41.75C51.9802 41.75 51.9734 41.75 51.9666 41.75C51.9597 41.75 51.9529 41.75 51.9461 41.75C51.9392 41.75 51.9324 41.75 51.9255 41.75C51.9187 41.75 51.9118 41.75 51.905 41.75C51.8981 41.75 51.8913 41.75 51.8844 41.75C51.8775 41.75 51.8707 41.75 51.8638 41.75C51.8569 41.75 51.85 41.75 51.8431 41.75C51.8363 41.75 51.8294 41.75 51.8225 41.75C51.8156 41.75 51.8087 41.75 51.8018 41.75C51.7949 41.75 51.788 41.75 51.7811 41.75C51.7742 41.75 51.7672 41.75 51.7603 41.75C51.7534 41.75 51.7465 41.75 51.7396 41.75C51.7326 41.75 51.7257 41.75 51.7188 41.75C51.7118 41.75 51.7049 41.75 51.698 41.75C51.691 41.75 51.6841 41.75 51.6771 41.75C51.6702 41.75 51.6632 41.75 51.6562 41.75C51.6493 41.75 51.6423 41.75 51.6354 41.75C51.6284 41.75 51.6214 41.75 51.6145 41.75C51.6075 41.75 51.6005 41.75 51.5935 41.75C51.5865 41.75 51.5796 41.75 51.5726 41.75C51.5656 41.75 51.5586 41.75 51.5516 41.75C51.5446 41.75 51.5376 41.75 51.5306 41.75C51.5236 41.75 51.5166 41.75 51.5096 41.75C51.5026 41.75 51.4956 41.75 51.4886 41.75C51.4815 41.75 51.4745 41.75 51.4675 41.75C51.4605 41.75 51.4535 41.75 51.4464 41.75C51.4394 41.75 51.4324 41.75 51.4253 41.75C51.4183 41.75 51.4113 41.75 51.4042 41.75C51.3972 41.75 51.3901 41.75 51.3831 41.75C51.3761 41.75 51.369 41.75 51.362 41.75C51.3549 41.75 51.3478 41.75 51.3408 41.75C51.3337 41.75 51.3267 41.75 51.3196 41.75C51.3125 41.75 51.3055 41.75 51.2984 41.75C51.2913 41.75 51.2843 41.75 51.2772 41.75C51.2701 41.75 51.2631 41.75 51.256 41.75C51.2489 41.75 51.2418 41.75 51.2347 41.75C51.2276 41.75 51.2206 41.75 51.2135 41.75C51.2064 41.75 51.1993 41.75 51.1922 41.75C51.1851 41.75 51.178 41.75 51.1709 41.75C51.1638 41.75 51.1567 41.75 51.1496 41.75C51.1425 41.75 51.1354 41.75 51.1283 41.75C51.1212 41.75 51.1141 41.75 51.107 41.75C51.0999 41.75 51.0927 41.75 51.0856 41.75C51.0785 41.75 51.0714 41.75 51.0643 41.75C51.0572 41.75 51.05 41.75 51.0429 41.75C51.0358 41.75 51.0287 41.75 51.0215 41.75C51.0144 41.75 51.0073 41.75 51.0002 41.75C50.993 41.75 50.9859 41.75 50.9788 41.75C50.9716 41.75 50.9645 41.75 50.9574 41.75C50.9502 41.75 50.9431 41.75 50.9359 41.75C50.9288 41.75 50.9217 41.75 50.9145 41.75C50.9074 41.75 50.9002 41.75 50.8931 41.75C50.8859 41.75 50.8788 41.75 50.8716 41.75C50.8645 41.75 50.8573 41.75 50.8502 41.75C50.843 41.75 50.8359 41.75 50.8287 41.75C50.8216 41.75 50.8144 41.75 50.8073 41.75C50.8001 41.75 50.793 41.75 50.7858 41.75C50.7786 41.75 50.7715 41.75 50.7643 41.75C50.7572 41.75 50.75 41.75 50.7428 41.75C50.7357 41.75 50.7285 41.75 50.7213 41.75C50.7142 41.75 50.707 41.75 50.6999 41.75C50.6927 41.75 50.6855 41.75 50.6784 41.75C50.6712 41.75 50.664 41.75 50.6569 41.75C50.6497 41.75 50.6425 41.75 50.6353 41.75C50.6282 41.75 50.621 41.75 50.6138 41.75C50.6067 41.75 50.5995 41.75 50.5923 41.75C50.5851 41.75 50.578 41.75 50.5708 41.75C50.5636 41.75 50.5565 41.75 50.5493 41.75C50.5421 41.75 50.5349 41.75 50.5278 41.75C50.5206 41.75 50.5134 41.75 50.5062 41.75C50.4991 41.75 50.4919 41.75 50.4847 41.75C50.4775 41.75 50.4704 41.75 50.4632 41.75C50.456 41.75 50.4488 41.75 50.4417 41.75C50.4345 41.75 50.4273 41.75 50.4201 41.75C50.413 41.75 50.4058 41.75 50.3986 41.75C50.3914 41.75 50.3843 41.75 50.3771 41.75C50.3699 41.75 50.3627 41.75 50.3556 41.75C50.3484 41.75 50.3412 41.75 50.334 41.75C50.3269 41.75 50.3197 41.75 50.3125 41.75C50.3054 41.75 50.2982 41.75 50.291 41.75C50.2838 41.75 50.2767 41.75 50.2695 41.75C50.2623 41.75 50.2552 41.75 50.248 41.75C50.2408 41.75 50.2337 41.75 50.2265 41.75C50.2193 41.75 50.2122 41.75 50.205 41.75C50.1978 41.75 50.1907 41.75 50.1835 41.75C50.1763 41.75 50.1692 41.75 50.162 41.75C50.1548 41.75 50.1477 41.75 50.1405 41.75C50.1333 41.75 50.1262 41.75 50.119 41.75C50.1119 41.75 50.1047 41.75 50.0975 41.75C50.0904 41.75 50.0832 41.75 50.0761 41.75C50.0689 41.75 50.0618 41.75 50.0546 41.75C50.0475 41.75 50.0403 41.75 50.0332 41.75C50.026 41.75 50.0189 41.75 50.0117 41.75C50.0046 41.75 49.9974 41.75 49.9903 41.75C49.9831 41.75 49.976 41.75 49.9688 41.75C49.9617 41.75 49.9546 41.75 49.9474 41.75C49.9403 41.75 49.9331 41.75 49.926 41.75C49.9189 41.75 49.9117 41.75 49.9046 41.75C49.8975 41.75 49.8903 41.75 49.8832 41.75C49.8761 41.75 49.869 41.75 49.8618 41.75C49.8547 41.75 49.8476 41.75 49.8405 41.75C49.8333 41.75 49.8262 41.75 49.8191 41.75C49.812 41.75 49.8049 41.75 49.7977 41.75C49.7906 41.75 49.7835 41.75 49.7764 41.75C49.7693 41.75 49.7622 41.75 49.7551 41.75C49.748 41.75 49.7409 41.75 49.7338 41.75C49.7267 41.75 49.7196 41.75 49.7125 41.75C49.7054 41.75 49.6983 41.75 49.6912 41.75C49.6841 41.75 49.677 41.75 49.6699 41.75C49.6628 41.75 49.6558 41.75 49.6487 41.75C49.6416 41.75 49.6345 41.75 49.6274 41.75C49.6203 41.75 49.6133 41.75 49.6062 41.75C49.5991 41.75 49.5921 41.75 49.585 41.75C49.5779 41.75 49.5709 41.75 49.5638 41.75C49.5567 41.75 49.5497 41.75 49.5426 41.75C49.5356 41.75 49.5285 41.75 49.5215 41.75C49.5144 41.75 49.5074 41.75 49.5003 41.75C49.4933 41.75 49.4862 41.75 49.4792 41.75C49.4722 41.75 49.4651 41.75 49.4581 41.75C49.4511 41.75 49.444 41.75 49.437 41.75C49.43 41.75 49.423 41.75 49.4159 41.75C49.4089 41.75 49.4019 41.75 49.3949 41.75C49.3879 41.75 49.3809 41.75 49.3739 41.75C49.3668 41.75 49.3598 41.75 49.3528 41.75C49.3458 41.75 49.3388 41.75 49.3319 41.75C49.3249 41.75 49.3179 41.75 49.3109 41.75C49.3039 41.75 49.2969 41.75 49.2899 41.75C49.283 41.75 49.276 41.75 49.269 41.75C49.262 41.75 49.2551 41.75 49.2481 41.75C49.2411 41.75 49.2342 41.75 49.2272 41.75C49.2203 41.75 49.2133 41.75 49.2064 41.75C49.1994 41.75 49.1925 41.75 49.1855 41.75C49.1786 41.75 49.1717 41.75 49.1647 41.75C49.1578 41.75 49.1509 41.75 49.1439 41.75C49.137 41.75 49.1301 41.75 49.1232 41.75C49.1163 41.75 49.1094 41.75 49.1024 41.75C49.0955 41.75 49.0886 41.75 49.0817 41.75C49.0748 41.75 49.0679 41.75 49.061 41.75C49.0542 41.75 49.0473 41.75 49.0404 41.75C49.0335 41.75 49.0266 41.75 49.0198 41.75C49.0129 41.75 49.006 41.75 48.9992 41.75C48.9923 41.75 48.9854 41.75 48.9786 41.75C48.9717 41.75 48.9649 41.75 48.958 41.75C48.9512 41.75 48.9443 41.75 48.9375 41.75C48.9307 41.75 48.9238 41.75 48.917 41.75C48.9102 41.75 48.9034 41.75 48.8965 41.75C48.8897 41.75 48.8829 41.75 48.8761 41.75C48.8693 41.75 48.8625 41.75 48.8557 41.75C48.8489 41.75 48.8421 41.75 48.8353 41.75C48.8285 41.75 48.8218 41.75 48.815 41.75C48.8082 41.75 48.8014 41.75 48.7947 41.75C48.7879 41.75 48.7811 41.75 48.7744 41.75C48.7676 41.75 48.7609 41.75 48.7541 41.75C48.7474 41.75 48.7407 41.75 48.7339 41.75C48.7272 41.75 48.7205 41.75 48.7137 41.75C48.707 41.75 48.7003 41.75 48.6936 41.75C48.6869 41.75 48.6802 41.75 48.6735 41.75C48.6668 41.75 48.6601 41.75 48.6534 41.75C48.6467 41.75 48.64 41.75 48.6333 41.75C48.6266 41.75 48.62 41.75 48.6133 41.75C48.6066 41.75 48.6 41.75 48.5933 41.75C48.5867 41.75 48.58 41.75 48.5734 41.75C48.5667 41.75 48.5601 41.75 48.5535 41.75C48.5468 41.75 48.5402 41.75 48.5336 41.75C48.527 41.75 48.5204 41.75 48.5138 41.75C48.5072 41.75 48.5006 41.75 48.494 41.75C48.4874 41.75 48.4808 41.75 48.4742 41.75C48.4676 41.75 48.461 41.75 48.4545 41.75C48.4479 41.75 48.4413 41.75 48.4348 41.75C48.4282 41.75 48.4217 41.75 48.4151 41.75C48.4086 41.75 48.4021 41.75 48.3955 41.75C48.389 41.75 48.3825 41.75 48.376 41.75C48.3695 41.75 48.3629 41.75 48.3564 41.75C48.3499 41.75 48.3434 41.75 48.337 41.75C48.3305 41.75 48.324 41.75 48.3175 41.75C48.311 41.75 48.3046 41.75 48.2981 41.75C48.2916 41.75 48.2852 41.75 48.2787 41.75C48.2723 41.75 48.2658 41.75 48.2594 41.75C48.253 41.75 48.2465 41.75 48.2401 41.75C48.2337 41.75 48.2273 41.75 48.2209 41.75C48.2145 41.75 48.2081 41.75 48.2017 41.75C48.1953 41.75 48.1889 41.75 48.1825 41.75C48.1762 41.75 48.1698 41.75 48.1634 41.75C48.1571 41.75 48.1507 41.75 48.1444 41.75C48.138 41.75 48.1317 41.75 48.1253 41.75C48.119 41.75 48.1127 41.75 48.1064 41.75C48.1001 41.75 48.0937 41.75 48.0874 41.75C48.0811 41.75 48.0749 41.75 48.0686 41.75C48.0623 41.75 48.056 41.75 48.0497 41.75C48.0435 41.75 48.0372 41.75 48.0309 41.75C48.0247 41.75 48.0184 41.75 48.0122 41.75C48.006 41.75 47.9997 41.75 47.9935 41.75C47.9873 41.75 47.9811 41.75 47.9749 41.75C47.9686 41.75 47.9624 41.75 47.9563 41.75C47.9501 41.75 47.9439 41.75 47.9377 41.75C47.9315 41.75 47.9254 41.75 47.9192 41.75C47.913 41.75 47.9069 41.75 47.9008 41.75C47.8946 41.75 47.8885 41.75 47.8824 41.75C47.8762 41.75 47.8701 41.75 47.864 41.75C47.8579 41.75 47.8518 41.75 47.8457 41.75C47.8396 41.75 47.8335 41.75 47.8274 41.75C47.8214 41.75 47.8153 41.75 47.8093 41.75C47.8032 41.75 47.7971 41.75 47.7911 41.75C47.7851 41.75 47.779 41.75 47.773 41.75C47.767 41.75 47.761 41.75 47.755 41.75C47.749 41.75 47.743 41.75 47.737 41.75C47.731 41.75 47.725 41.75 47.7191 41.75C47.7131 41.75 47.7071 41.75 47.7012 41.75C47.6952 41.75 47.6893 41.75 47.6833 41.75C47.6774 41.75 47.6715 41.75 47.6656 41.75C47.6597 41.75 47.6538 41.75 47.6479 41.75C47.642 41.75 47.6361 41.75 47.6302 41.75C47.6243 41.75 47.6185 41.75 47.6126 41.75C47.6067 41.75 47.6009 41.75 47.595 41.75C47.5892 41.75 47.5834 41.75 47.5776 41.75C47.5717 41.75 47.5659 41.75 47.5601 41.75C47.5543 41.75 47.5485 41.75 47.5427 41.75C47.537 41.75 47.5312 41.75 47.5254 41.75C47.5197 41.75 47.5139 41.75 47.5082 41.75C47.5024 41.75 47.4967 41.75 47.491 41.75C47.4852 41.75 47.4795 41.75 47.4738 41.75C47.4681 41.75 47.4624 41.75 47.4567 41.75C47.4511 41.75 47.4454 41.75 47.4397 41.75C47.4341 41.75 47.4284 41.75 47.4228 41.75C47.4171 41.75 47.4115 41.75 47.4059 41.75C47.4002 41.75 47.3946 41.75 47.389 41.75C47.3834 41.75 47.3778 41.75 47.3722 41.75C47.3667 41.75 47.3611 41.75 47.3555 41.75C47.35 41.75 47.3444 41.75 47.3389 41.75C47.3333 41.75 47.3278 41.75 47.3223 41.75C47.3168 41.75 47.3113 41.75 47.3058 41.75C47.3003 41.75 47.2948 41.75 47.2893 41.75C47.2838 41.75 47.2783 41.75 47.2729 41.75C47.2674 41.75 47.262 41.75 47.2566 41.75C47.2511 41.75 47.2457 41.75 47.2403 41.75C47.2349 41.75 47.2295 41.75 47.2241 41.75C47.2187 41.75 47.2133 41.75 47.2079 41.75C47.2026 41.75 47.1972 41.75 47.1919 41.75C47.1865 41.75 47.1812 41.75 47.1759 41.75C47.1705 41.75 47.1652 41.75 47.1599 41.75C47.1546 41.75 47.1493 41.75 47.144 41.75C47.1388 41.75 47.1335 41.75 47.1282 41.75C47.123 41.75 47.1177 41.75 47.1125 41.75C47.1073 41.75 47.102 41.75 47.0968 41.75C47.0916 41.75 47.0864 41.75 47.0812 41.75C47.076 41.75 47.0709 41.75 47.0657 41.75C47.0605 41.75 47.0554 41.75 47.0502 41.75C47.0451 41.75 47.04 41.75 47.0348 41.75C47.0297 41.75 47.0246 41.75 47.0195 41.75C47.0144 41.75 47.0093 41.75 47.0043 41.75C46.9992 41.75 46.9941 41.75 46.9891 41.75C46.984 41.75 46.979 41.75 46.974 41.75C46.969 41.75 46.9639 41.75 46.9589 41.75C46.9539 41.75 46.949 41.75 46.944 41.75C46.939 41.75 46.934 41.75 46.9291 41.75C46.9241 41.75 46.9192 41.75 46.9143 41.75C46.9093 41.75 46.9044 41.75 46.8995 41.75C46.8946 41.75 46.8897 41.75 46.8849 41.75C46.88 41.75 46.8751 41.75 46.8703 41.75C46.8654 41.75 46.8606 41.75 46.8557 41.75C46.8509 41.75 46.8461 41.75 46.8413 41.75C46.8365 41.75 46.8317 41.75 46.8269 41.75C46.8222 41.75 46.8174 41.75 46.8126 41.75C46.8079 41.75 46.8032 41.75 46.7984 41.75C46.7937 41.75 46.789 41.75 46.7843 41.75C46.7796 41.75 46.7749 41.75 46.7702 41.75C46.7656 41.75 46.7609 41.75 46.7562 41.75C46.7516 41.75 46.747 41.75 46.7423 41.75C46.7377 41.75 46.7331 41.75 46.7285 41.75C46.7239 41.75 46.7193 41.75 46.7148 41.75C46.7102 41.75 46.7056 41.75 46.7011 41.75C46.6965 41.75 46.692 41.75 46.6875 41.75C46.683 41.75 46.6785 41.75 46.674 41.75C46.6695 41.75 46.665 41.75 46.6606 41.75C46.6561 41.75 46.6516 41.75 46.6472 41.75C46.6428 41.75 46.6384 41.75 46.6339 41.75C46.6295 41.75 46.6251 41.75 46.6208 41.75C46.6164 41.75 46.612 41.75 46.6077 41.75C46.6033 41.75 46.599 41.75 46.5946 41.75C46.5903 41.75 46.586 41.75 46.5817 41.75C46.5774 41.75 46.5731 41.75 46.5688 41.75C46.5646 41.75 46.5603 41.75 46.5561 41.75C46.5518 41.75 46.5476 41.75 46.5434 41.75C46.5392 41.75 46.535 41.75 46.5308 41.75C46.5266 41.75 46.5224 41.75 46.5183 41.75C46.5141 41.75 46.51 41.75 46.5058 41.75C46.5017 41.75 46.4976 41.75 46.4935 41.75C46.4894 41.75 46.4853 41.75 46.4812 41.75C46.4772 41.75 46.4731 41.75 46.4691 41.75C46.465 41.75 46.461 41.75 46.457 41.75C46.453 41.75 46.449 41.75 46.445 41.75C46.441 41.75 46.437 41.75 46.4331 41.75C46.4291 41.75 46.4252 41.75 46.4212 41.75C46.4173 41.75 46.4134 41.75 46.4095 41.75C46.4056 41.75 46.4017 41.75 46.3979 41.75C46.394 41.75 46.3901 41.75 46.3863 41.75C46.3825 41.75 46.3786 41.75 46.3748 41.75C46.371 41.75 46.3672 41.75 46.3635 41.75C46.3597 41.75 46.3559 41.75 46.3522 41.75C46.3484 41.75 46.3447 41.75 46.341 41.75C46.3373 41.75 46.3336 41.75 46.3299 41.75C46.3262 41.75 46.3225 41.75 46.3189 41.75C46.3152 41.75 46.3116 41.75 46.3079 41.75C46.3043 41.75 46.3007 41.75 46.2971 41.75C46.2935 41.75 46.2899 41.75 46.2864 41.75C46.2828 41.75 46.2793 41.75 46.2757 41.75C46.2722 41.75 46.2687 41.75 46.2652 41.75C46.2617 41.75 46.2582 41.75 46.2547 41.75C46.2513 41.75 46.2478 41.75 46.2444 41.75C46.241 41.75 46.2375 41.75 46.2341 41.75C46.2307 41.75 46.2273 41.75 46.224 41.75C46.2206 41.75 46.2172 41.75 46.2139 41.75C46.2105 41.75 46.2072 41.75 46.2039 41.75C46.2006 41.75 46.1973 41.75 46.194 41.75C46.1908 41.75 46.1875 41.75 46.1842 41.75C46.181 41.75 46.1778 41.75 46.1746 41.75C46.1714 41.75 46.1682 41.75 46.165 41.75C46.1618 41.75 46.1586 41.75 46.1555 41.75C46.1523 41.75 46.1492 41.75 46.1461 41.75C46.143 41.75 46.1399 41.75 46.1368 41.75C46.1337 41.75 46.1307 41.75 46.1276 41.75C46.1246 41.75 46.1215 41.75 46.1185 41.75C46.1155 41.75 46.1125 41.75 46.1095 41.75C46.1066 41.75 46.1036 41.75 46.1006 41.75C46.0977 41.75 46.0948 41.75 46.0919 41.75C46.0889 41.75 46.086 41.75 46.0832 41.75C46.0803 41.75 46.0774 41.75 46.0746 41.75C46.0717 41.75 46.0689 41.75 46.0661 41.75C46.0633 41.75 46.0605 41.75 46.0577 41.75C46.0549 41.75 46.0522 41.75 46.0494 41.75C46.0467 41.75 46.044 41.75 46.0413 41.75C46.0386 41.75 46.0359 41.75 46.0332 41.75C46.0305 41.75 46.0279 41.75 46.0252 41.75C46.0226 41.75 46.02 41.75 46.0174 41.75C46.0148 41.75 46.0122 41.75 46.0096 41.75C46.007 41.75 46.0045 41.75 46.002 41.75C45.9994 41.75 45.9969 41.75 45.9944 41.75C45.9919 41.75 45.9894 41.75 45.987 41.75C45.9845 41.75 45.9821 41.75 45.9796 41.75C45.9772 41.75 45.9748 41.75 45.9724 41.75C45.97 41.75 45.9676 41.75 45.9653 41.75C45.9629 41.75 45.9606 41.75 45.9583 41.75C45.956 41.75 45.9537 41.75 45.9514 41.75C45.9491 41.75 45.9468 41.75 45.9446 41.75C45.9423 41.75 45.9401 41.75 45.9379 41.75C45.9357 41.75 45.9335 41.75 45.9313 41.75C45.9292 41.75 45.927 41.75 45.9249 41.75C45.9227 41.75 45.9206 41.75 45.9185 41.75C45.9164 41.75 45.9143 41.75 45.9123 41.75C45.9102 41.75 45.9082 41.75 45.9061 41.75C45.9041 41.75 45.9021 41.75 45.9001 41.75C45.8981 41.75 45.8961 41.75 45.8942 41.75C45.8922 41.75 45.8903 41.75 45.8884 41.75C45.8865 41.75 45.8846 41.75 45.8827 41.75C45.8808 41.75 45.879 41.75 45.8771 41.75C45.8753 41.75 45.8735 41.75 45.8717 41.75C45.8699 41.75 45.8681 41.75 45.8663 41.75C45.8646 41.75 45.8628 41.75 45.8611 41.75C45.8594 41.75 45.8577 41.75 45.856 41.75C45.8543 41.75 45.8526 41.75 45.851 41.75C45.8493 41.75 45.8477 41.75 45.8461 41.75C45.8445 41.75 45.8429 41.75 45.8413 41.75C45.8398 41.75 45.8382 41.75 45.8367 41.75C45.8352 41.75 45.8336 41.75 45.8322 41.75C45.8307 41.75 45.8292 41.75 45.8277 41.75C45.8263 41.75 45.8248 41.75 45.8234 41.75C45.822 41.75 45.8206 41.75 45.8193 41.75C45.8179 41.75 45.8165 41.75 45.8152 41.75C45.8139 41.75 45.8125 41.75 45.8112 41.75C45.8099 41.75 45.8087 41.75 45.8074 41.75C45.8062 41.75 45.8049 41.75 45.8037 41.75C45.8025 41.75 45.8013 41.75 45.8001 41.75C45.7989 41.75 45.7978 41.75 45.7967 41.75C45.7955 41.75 45.7944 41.75 45.7933 41.75C45.7922 41.75 45.7911 41.75 45.7901 41.75C45.789 41.75 45.788 41.75 45.787 41.75C45.786 41.75 45.785 41.75 45.784 41.75C45.783 41.75 45.7821 41.75 45.7811 41.75C45.7802 41.75 45.7793 41.75 45.7784 41.75C45.7775 41.75 45.7766 41.75 45.7758 41.75C45.7749 41.75 45.7741 41.75 45.7733 41.75C45.7725 41.75 45.7717 41.75 45.7709 41.75C45.7702 41.75 45.7694 41.75 45.7687 41.75C45.768 41.75 45.7673 41.75 45.7666 41.75C45.7659 41.75 45.7652 41.75 45.7646 41.75C45.7639 41.75 45.7633 41.75 45.7627 41.75C45.7621 41.75 45.7615 41.75 45.761 41.75C45.7604 41.75 45.7599 41.75 45.7594 41.75C45.7588 41.75 45.7583 41.75 45.7579 41.75C45.7574 41.75 45.7569 41.75 45.7565 41.75C45.7561 41.75 45.7557 41.75 45.7553 41.75C45.7549 41.75 45.7545 41.75 45.7542 41.75C45.7538 41.75 45.7535 41.75 45.7532 41.75C45.7529 41.75 45.7526 41.75 45.7524 41.75C45.7521 41.75 45.7519 41.75 45.7516 41.75C45.7514 41.75 45.7512 41.75 45.751 41.75C45.7509 41.75 45.7507 41.75 45.7506 41.75C45.7505 41.75 45.7504 41.75 45.7503 41.75C45.7502 41.75 45.7501 41.75 45.7501 41.75C45.75 41.75 45.75 41.75 45.75 42.75Z" fill="#BEA88E"/>
</svg>
