<svg width="60" height="60" viewBox="0 0 60 60" fill="none" xmlns="http://www.w3.org/2000/svg">
<g opacity="0.5">
<mask id="path-1-inside-1_45_349" fill="white">
<path d="M8.7868 8.78679C5.72039 11.8532 3.35522 15.548 1.85426 19.6165C0.353303 23.685 -0.247762 28.0306 0.0924796 32.3538C0.432721 36.677 1.70618 40.875 3.82512 44.6586C5.94405 48.4423 8.85809 51.7215 12.3664 54.2705C15.8748 56.8195 19.8941 58.5775 24.1473 59.4236C28.4005 60.2696 32.7866 60.1834 37.0034 59.1711C41.2201 58.1587 45.1672 56.2443 48.5728 53.5595C51.9784 50.8748 54.7614 47.4836 56.7302 43.6197L55.3937 42.9387C53.5234 46.6094 50.8795 49.831 47.6442 52.3815C44.4089 54.932 40.6591 56.7508 36.6532 57.7125C32.6473 58.6743 28.4805 58.7561 24.4399 57.9524C20.3993 57.1487 16.581 55.4785 13.2481 53.057C9.91518 50.6355 7.14685 47.5202 5.13386 43.9257C3.12087 40.3312 1.91109 36.3431 1.58786 32.2361C1.26463 28.129 1.83564 24.0008 3.26155 20.1357C4.68746 16.2706 6.93437 12.7605 9.84746 9.84745L8.7868 8.78679Z"/>
</mask>
<path d="M8.7868 8.78679C5.72039 11.8532 3.35522 15.548 1.85426 19.6165C0.353303 23.685 -0.247762 28.0306 0.0924796 32.3538C0.432721 36.677 1.70618 40.875 3.82512 44.6586C5.94405 48.4423 8.85809 51.7215 12.3664 54.2705C15.8748 56.8195 19.8941 58.5775 24.1473 59.4236C28.4005 60.2696 32.7866 60.1834 37.0034 59.1711C41.2201 58.1587 45.1672 56.2443 48.5728 53.5595C51.9784 50.8748 54.7614 47.4836 56.7302 43.6197L55.3937 42.9387C53.5234 46.6094 50.8795 49.831 47.6442 52.3815C44.4089 54.932 40.6591 56.7508 36.6532 57.7125C32.6473 58.6743 28.4805 58.7561 24.4399 57.9524C20.3993 57.1487 16.581 55.4785 13.2481 53.057C9.91518 50.6355 7.14685 47.5202 5.13386 43.9257C3.12087 40.3312 1.91109 36.3431 1.58786 32.2361C1.26463 28.129 1.83564 24.0008 3.26155 20.1357C4.68746 16.2706 6.93437 12.7605 9.84746 9.84745L8.7868 8.78679Z" stroke="#BEA88E" stroke-width="4" mask="url(#path-1-inside-1_45_349)"/>
</g>
<path d="M41.7867 20.1467C41.1057 19.4653 40.2971 18.9249 39.4071 18.5561C38.5172 18.1874 37.5633 17.9976 36.6 17.9976C35.6367 17.9976 34.6828 18.1874 33.7929 18.5561C32.9029 18.9249 32.0943 19.4653 31.4133 20.1467L30 21.56L28.5867 20.1467C27.2111 18.7711 25.3454 17.9983 23.4 17.9983C21.4546 17.9983 19.5889 18.7711 18.2133 20.1467C16.8377 21.5223 16.0649 23.388 16.0649 25.3333C16.0649 27.2787 16.8377 29.1444 18.2133 30.52L19.6267 31.9333L30 42.3067L40.3733 31.9333L41.7867 30.52C42.468 29.839 43.0085 29.0304 43.3772 28.1405C43.746 27.2505 43.9358 26.2966 43.9358 25.3333C43.9358 24.37 43.746 23.4161 43.3772 22.5262C43.0085 21.6362 42.468 20.8277 41.7867 20.1467V20.1467Z" stroke="#BEA88E" stroke-width="2" stroke-linecap="round" stroke-linejoin="round"/>
<path d="M18.6314 41.2143L21.9063 37.7857H17.2834C17.278 37.7857 17.2727 37.7879 17.269 37.7919L14.0323 41.1805C14.0201 41.1932 14.0292 41.2143 14.0468 41.2143H18.6314Z" fill="#BEA88E"/>
<path d="M18.6314 41.2143V45.4501C18.6314 45.4681 18.6534 45.477 18.6659 45.4639L21.9008 42.0772C21.9043 42.0735 21.9063 42.0686 21.9063 42.0634V37.7857L18.6314 41.2143Z" fill="#BEA88E"/>
<path d="M30.6933 30.7207C31.0913 30.3378 31.1036 29.7048 30.7207 29.3067C30.3378 28.9087 29.7048 28.8964 29.3067 29.2793L30.6933 30.7207ZM14.0323 41.1805L13.3092 40.4898L14.0323 41.1805ZM17.269 37.7919L16.5458 37.1012L17.269 37.7919ZM21.9008 42.0772L21.1777 41.3865L21.9008 42.0772ZM18.6659 45.4639L19.389 46.1546L18.6659 45.4639ZM17.6314 41.2143V45.4501H19.6314V41.2143H17.6314ZM19.389 46.1546L22.6239 42.7679L21.1777 41.3865L17.9427 44.7732L19.389 46.1546ZM29.3067 29.2793L21.2131 37.065L22.5996 38.5064L30.6933 30.7207L29.3067 29.2793ZM21.1832 37.095L17.9083 40.5236L19.3545 41.905L22.6295 38.4764L21.1832 37.095ZM22.9063 42.0634V37.7857H20.9063V42.0634H22.9063ZM16.5458 37.1012L13.3092 40.4898L14.7554 41.8712L17.9921 38.4826L16.5458 37.1012ZM14.0468 42.2143H18.6314V40.2143H14.0468V42.2143ZM21.9063 36.7857H17.2834V38.7857H21.9063V36.7857ZM13.3092 40.4898C12.6893 41.1388 13.1493 42.2143 14.0468 42.2143V40.2143C14.9091 40.2143 15.351 41.2476 14.7554 41.8712L13.3092 40.4898ZM17.9921 38.4826C17.8072 38.6762 17.5511 38.7857 17.2834 38.7857V36.7857C17.0048 36.7857 16.7383 36.8997 16.5458 37.1012L17.9921 38.4826ZM22.6239 42.7679C22.8052 42.5782 22.9063 42.3258 22.9063 42.0634H20.9063C20.9063 41.8113 21.0035 41.5688 21.1777 41.3865L22.6239 42.7679ZM17.6314 45.4501C17.6314 46.3702 18.7535 46.8199 19.389 46.1546L17.9427 44.7732C18.5533 44.134 19.6314 44.5661 19.6314 45.4501H17.6314Z" fill="#BEA88E"/>
<path d="M39.6828 13.6828C39.4309 13.4309 39.6093 13 39.9657 13H46.6C46.8209 13 47 13.1791 47 13.4V20.0343C47 20.3907 46.5691 20.5691 46.3172 20.3172L39.6828 13.6828Z" fill="#BEA88E"/>
<path d="M41 19L45 15" stroke="#BEA88E" stroke-width="2"/>
</svg>
