<svg width="90" height="90" viewBox="0 0 90 90" fill="none" xmlns="http://www.w3.org/2000/svg">
<g opacity="0.5">
<mask id="path-1-inside-1_211_901" fill="white">
<path d="M13.1802 13.1802C8.58058 17.7798 5.03283 23.3219 2.78139 29.4247C0.529955 35.5275 -0.371643 42.0459 0.138719 48.5307C0.649082 55.0154 2.55927 61.3125 5.73768 66.9879C8.91608 72.6634 13.2871 77.5823 18.5497 81.4058C23.8122 85.2292 29.8411 87.8663 36.2209 89.1353C42.6008 90.4044 49.1799 90.2752 55.505 88.7566C61.8301 87.2381 67.7509 84.3664 72.8592 80.3393C77.9676 76.3122 82.1422 71.2254 85.0953 65.4296L83.0905 64.4081C80.285 69.9142 76.3192 74.7466 71.4663 78.5723C66.6133 82.3981 60.9886 85.1262 54.9798 86.5688C48.9709 88.0114 42.7207 88.1342 36.6599 86.9286C30.599 85.723 24.8716 83.2178 19.8722 79.5855C14.8728 75.9532 10.7203 71.2802 7.70079 65.8886C4.68131 60.4969 2.86663 54.5147 2.38178 48.3541C1.89694 42.1936 2.75346 36.0011 4.89232 30.2035C7.03119 24.4058 10.4016 19.1408 14.7712 14.7712L13.1802 13.1802Z"/>
</mask>
<path d="M13.1802 13.1802C8.58058 17.7798 5.03283 23.3219 2.78139 29.4247C0.529955 35.5275 -0.371643 42.0459 0.138719 48.5307C0.649082 55.0154 2.55927 61.3125 5.73768 66.9879C8.91608 72.6634 13.2871 77.5823 18.5497 81.4058C23.8122 85.2292 29.8411 87.8663 36.2209 89.1353C42.6008 90.4044 49.1799 90.2752 55.505 88.7566C61.8301 87.2381 67.7509 84.3664 72.8592 80.3393C77.9676 76.3122 82.1422 71.2254 85.0953 65.4296L83.0905 64.4081C80.285 69.9142 76.3192 74.7466 71.4663 78.5723C66.6133 82.3981 60.9886 85.1262 54.9798 86.5688C48.9709 88.0114 42.7207 88.1342 36.6599 86.9286C30.599 85.723 24.8716 83.2178 19.8722 79.5855C14.8728 75.9532 10.7203 71.2802 7.70079 65.8886C4.68131 60.4969 2.86663 54.5147 2.38178 48.3541C1.89694 42.1936 2.75346 36.0011 4.89232 30.2035C7.03119 24.4058 10.4016 19.1408 14.7712 14.7712L13.1802 13.1802Z" stroke="#BEA88E" stroke-width="4" mask="url(#path-1-inside-1_211_901)"/>
</g>
<path d="M62.68 30.2202C61.6585 29.1982 60.4456 28.3875 59.1107 27.8344C57.7758 27.2813 56.345 26.9966 54.9 26.9966C53.455 26.9966 52.0242 27.2813 50.6893 27.8344C49.3544 28.3875 48.1415 29.1982 47.12 30.2202L45 32.3402L42.88 30.2202C40.8166 28.1568 38.0181 26.9977 35.1 26.9977C32.1819 26.9977 29.3834 28.1568 27.32 30.2202C25.2566 32.2836 24.0974 35.0822 24.0974 38.0002C24.0974 40.9183 25.2566 43.7168 27.32 45.7802L29.44 47.9002L45 63.4602L60.56 47.9002L62.68 45.7802C63.702 44.7587 64.5127 43.5459 65.0658 42.2109C65.6189 40.876 65.9036 39.4452 65.9036 38.0002C65.9036 36.5553 65.6189 35.1244 65.0658 33.7895C64.5127 32.4546 63.702 31.2417 62.68 30.2202V30.2202Z" stroke="#BEA88E" stroke-width="2" stroke-linecap="round" stroke-linejoin="round"/>
</svg>
