<svg width="28" height="29" viewBox="0 0 28 29" fill="none" xmlns="http://www.w3.org/2000/svg">
<g opacity="0.5" clip-path="url(#clip0_251_1085)">
<path d="M21 26.5V24.5C21 23.4391 20.5786 22.4217 19.8284 21.6716C19.0783 20.9214 18.0609 20.5 17 20.5H9C7.93913 20.5 6.92172 20.9214 6.17157 21.6716C5.42143 22.4217 5 23.4391 5 24.5V26.5" stroke="#84694B" stroke-width="2" stroke-linecap="round" stroke-linejoin="round"/>
<path d="M13 16.5C15.2091 16.5 17 14.7091 17 12.5C17 10.2909 15.2091 8.5 13 8.5C10.7909 8.5 9 10.2909 9 12.5C9 14.7091 10.7909 16.5 13 16.5Z" stroke="#84694B" stroke-width="2" stroke-linecap="round" stroke-linejoin="round"/>
<path d="M24.3831 2.11885C24.1876 1.92266 23.9556 1.76702 23.7001 1.66084C23.4447 1.55465 23.1709 1.5 22.8944 1.5C22.6178 1.5 22.344 1.55465 22.0886 1.66084C21.8331 1.76702 21.6011 1.92266 21.4056 2.11885L20.9999 2.52583L20.5942 2.11885C20.1994 1.72274 19.6638 1.50021 19.1054 1.50021C18.547 1.50021 18.0115 1.72274 17.6167 2.11885C17.2218 2.51496 17 3.05221 17 3.61239C17 4.17258 17.2218 4.70982 17.6167 5.10594L18.0224 5.51292L20.9999 8.5L23.9774 5.51292L24.3831 5.10594C24.5787 4.90983 24.7338 4.677 24.8397 4.42073C24.9455 4.16446 25 3.88979 25 3.61239C25 3.335 24.9455 3.06032 24.8397 2.80405C24.7338 2.54779 24.5787 2.31495 24.3831 2.11885V2.11885Z" stroke="#84694B" stroke-width="2" stroke-linecap="round" stroke-linejoin="round"/>
</g>
<defs>
<clipPath id="clip0_251_1085">
<rect width="28" height="28" fill="white" transform="translate(0 0.5)"/>
</clipPath>
</defs>
</svg>
