<svg width="60" height="60" viewBox="0 0 60 60" fill="none" xmlns="http://www.w3.org/2000/svg">
<circle cx="30" cy="30" r="30" fill="#FAF6EF"/>
<path d="M40.3131 21.3785C39.7173 20.7823 39.0098 20.3094 38.2311 19.9868C37.4524 19.6641 36.6177 19.498 35.7748 19.498C34.9319 19.498 34.0973 19.6641 33.3186 19.9868C32.5399 20.3094 31.8324 20.7823 31.2365 21.3785L29.9998 22.6152L28.7631 21.3785C27.5595 20.1749 25.927 19.4987 24.2248 19.4987C22.5226 19.4987 20.8901 20.1749 19.6865 21.3785C18.4828 22.5822 17.8066 24.2146 17.8066 25.9168C17.8066 27.619 18.4828 29.2515 19.6865 30.4552L20.9231 31.6918L29.9998 40.7685L39.0765 31.6918L40.3131 30.4552C40.9093 29.8593 41.3822 29.1518 41.7049 28.3731C42.0275 27.5944 42.1936 26.7597 42.1936 25.9168C42.1936 25.0739 42.0275 24.2393 41.7049 23.4606C41.3822 22.6819 40.9093 21.9744 40.3131 21.3785V21.3785Z" stroke="#84694B" stroke-width="2" stroke-linecap="round" stroke-linejoin="round"/>
</svg>
