<svg width="174" height="46" viewBox="0 0 174 46" fill="none" xmlns="http://www.w3.org/2000/svg">
<path d="M30.563 1.55381C24.4141 -2.16176 19.3924 2.68914 17.6502 5.57903C15.4981 0.934544 3.50759 -4.63876 0.43311 6.50794C-2.64137 17.6546 11.5013 27.2532 16.113 31.2784C20.7247 35.3036 20.1636 43.8494 17.2171 43.9675C13.2203 44.1278 9.22345 38.7038 15.4981 32.2073C5.22662 39.9423 13.2203 48.088 18.7544 45.5157C25.0364 42.5957 23.0586 34.369 15.4981 28.486C10.9726 24.9647 -3.12293 14.8801 1.97034 5.57903C5.53407 -0.928892 14.0633 4.03088 17.6502 7.43683C19.8023 1.86348 30.1299 -0.619261 32.1003 7.43683C33.5377 13.3141 22.7743 25.189 17.6502 29.7302C21.1346 27.15 28.7184 21.2464 31.1779 18.2739C34.2524 14.5583 38.2493 6.19827 30.563 1.55381Z" fill="#53493E"/>
<path d="M53.752 9.802C55.152 9.802 56.216 9.97 56.944 10.306C57.672 10.614 58.316 10.964 58.876 11.356C59.212 11.552 59.478 11.706 59.674 11.818C59.898 11.902 60.108 11.944 60.304 11.944C60.584 11.944 60.78 11.79 60.892 11.482C61.032 11.174 61.144 10.712 61.228 10.096H62.194C62.166 10.572 62.124 11.146 62.068 11.818C62.04 12.462 62.012 13.33 61.984 14.422C61.984 15.486 61.984 16.9 61.984 18.664H61.018C60.934 17.32 60.64 16.032 60.136 14.8C59.632 13.568 58.89 12.56 57.91 11.776C56.958 10.992 55.698 10.6 54.13 10.6C52.646 10.6 51.414 11.048 50.434 11.944C49.482 12.84 49.006 14.016 49.006 15.472C49.006 16.732 49.328 17.796 49.972 18.664C50.616 19.504 51.47 20.274 52.534 20.974C53.626 21.646 54.802 22.374 56.062 23.158C57.518 24.054 58.806 24.95 59.926 25.846C61.074 26.714 61.97 27.68 62.614 28.744C63.286 29.808 63.622 31.096 63.622 32.608C63.622 34.4 63.216 35.884 62.404 37.06C61.592 38.236 60.514 39.118 59.17 39.706C57.826 40.294 56.342 40.588 54.718 40.588C53.234 40.588 52.058 40.42 51.19 40.084C50.322 39.748 49.58 39.398 48.964 39.034C48.348 38.642 47.872 38.446 47.536 38.446C47.256 38.446 47.046 38.6 46.906 38.908C46.794 39.216 46.696 39.678 46.612 40.294H45.646C45.702 39.706 45.73 39.02 45.73 38.236C45.758 37.424 45.772 36.374 45.772 35.086C45.8 33.798 45.814 32.174 45.814 30.214H46.78C46.892 31.894 47.2 33.462 47.704 34.918C48.236 36.374 49.034 37.55 50.098 38.446C51.19 39.314 52.632 39.748 54.424 39.748C55.348 39.748 56.216 39.566 57.028 39.202C57.868 38.81 58.554 38.208 59.086 37.396C59.618 36.556 59.884 35.478 59.884 34.162C59.884 33.014 59.604 32.02 59.044 31.18C58.512 30.312 57.756 29.514 56.776 28.786C55.796 28.03 54.648 27.26 53.332 26.476C52.016 25.664 50.784 24.838 49.636 23.998C48.488 23.158 47.564 22.192 46.864 21.1C46.192 19.98 45.856 18.636 45.856 17.068C45.856 15.416 46.22 14.058 46.948 12.994C47.704 11.902 48.684 11.104 49.888 10.6C51.092 10.068 52.38 9.802 53.752 9.802ZM77.1056 17.782C79.5696 17.782 81.4876 18.538 82.8596 20.05C84.2596 21.534 84.9596 23.858 84.9596 27.022H70.1336L70.0916 26.224H80.9276C80.9836 24.852 80.8716 23.592 80.5916 22.444C80.3116 21.268 79.8636 20.33 79.2476 19.63C78.6596 18.93 77.8896 18.58 76.9376 18.58C75.6496 18.58 74.5016 19.224 73.4936 20.512C72.5136 21.8 71.9256 23.844 71.7296 26.644L71.8556 26.812C71.7996 27.232 71.7576 27.694 71.7296 28.198C71.7016 28.702 71.6876 29.206 71.6876 29.71C71.6876 31.614 71.9956 33.252 72.6116 34.624C73.2276 35.996 74.0256 37.046 75.0056 37.774C76.0136 38.474 77.0496 38.824 78.1136 38.824C78.9536 38.824 79.7516 38.698 80.5076 38.446C81.2636 38.166 81.9636 37.718 82.6076 37.102C83.2516 36.486 83.8116 35.66 84.2876 34.624L85.1276 34.96C84.8196 35.884 84.3156 36.78 83.6156 37.648C82.9156 38.516 82.0336 39.23 80.9696 39.79C79.9056 40.322 78.6736 40.588 77.2736 40.588C75.2576 40.588 73.5216 40.126 72.0656 39.202C70.6376 38.278 69.5316 37.004 68.7476 35.38C67.9916 33.728 67.6136 31.838 67.6136 29.71C67.6136 27.246 68.0056 25.132 68.7896 23.368C69.5736 21.576 70.6796 20.204 72.1076 19.252C73.5356 18.272 75.2016 17.782 77.1056 17.782ZM102.258 17.782C103.322 17.782 104.204 17.922 104.904 18.202C105.632 18.482 106.234 18.874 106.71 19.378C107.242 19.938 107.62 20.638 107.844 21.478C108.068 22.318 108.18 23.452 108.18 24.88V36.094C108.18 37.27 108.418 38.068 108.894 38.488C109.398 38.908 110.224 39.118 111.372 39.118V40C110.896 39.972 110.168 39.944 109.188 39.916C108.208 39.86 107.256 39.832 106.332 39.832C105.408 39.832 104.498 39.86 103.602 39.916C102.734 39.944 102.076 39.972 101.628 40V39.118C102.636 39.118 103.35 38.908 103.77 38.488C104.19 38.068 104.4 37.27 104.4 36.094V23.956C104.4 23.088 104.33 22.29 104.19 21.562C104.05 20.834 103.728 20.246 103.224 19.798C102.748 19.35 102.006 19.126 100.998 19.126C99.8217 19.126 98.7857 19.462 97.8897 20.134C97.0217 20.806 96.3357 21.73 95.8317 22.906C95.3557 24.054 95.1177 25.342 95.1177 26.77V36.094C95.1177 37.27 95.3277 38.068 95.7477 38.488C96.1677 38.908 96.8817 39.118 97.8897 39.118V40C97.4417 39.972 96.7697 39.944 95.8737 39.916C95.0057 39.86 94.1097 39.832 93.1857 39.832C92.2617 39.832 91.3097 39.86 90.3297 39.916C89.3497 39.944 88.6217 39.972 88.1457 40V39.118C89.2937 39.118 90.1057 38.908 90.5817 38.488C91.0857 38.068 91.3377 37.27 91.3377 36.094V22.948C91.3377 21.688 91.1137 20.764 90.6657 20.176C90.2177 19.56 89.3777 19.252 88.1457 19.252V18.37C89.0417 18.454 89.9097 18.496 90.7497 18.496C91.5617 18.496 92.3317 18.454 93.0597 18.37C93.8157 18.258 94.5017 18.104 95.1177 17.908V22.864C95.8457 20.96 96.8537 19.644 98.1417 18.916C99.4577 18.16 100.83 17.782 102.258 17.782ZM120.724 17.782C121.844 17.782 122.796 17.964 123.58 18.328C124.364 18.692 124.938 19.028 125.302 19.336C126.226 20.092 126.786 19.588 126.982 17.824H127.948C127.892 18.608 127.85 19.546 127.822 20.638C127.794 21.702 127.78 23.144 127.78 24.964H126.814C126.646 23.928 126.352 22.92 125.932 21.94C125.54 20.96 124.952 20.162 124.168 19.546C123.384 18.902 122.362 18.58 121.102 18.58C120.122 18.58 119.296 18.86 118.624 19.42C117.98 19.952 117.658 20.75 117.658 21.814C117.658 22.654 117.91 23.382 118.414 23.998C118.918 24.586 119.576 25.146 120.388 25.678C121.2 26.182 122.082 26.742 123.034 27.358C124.098 28.03 125.064 28.716 125.932 29.416C126.8 30.116 127.486 30.886 127.99 31.726C128.522 32.566 128.788 33.56 128.788 34.708C128.788 35.996 128.452 37.074 127.78 37.942C127.108 38.81 126.226 39.468 125.134 39.916C124.07 40.364 122.894 40.588 121.606 40.588C120.99 40.588 120.402 40.532 119.842 40.42C119.31 40.336 118.792 40.196 118.288 40C118.008 39.86 117.714 39.692 117.406 39.496C117.126 39.3 116.846 39.09 116.566 38.866C116.286 38.642 116.034 38.656 115.81 38.908C115.586 39.132 115.418 39.594 115.306 40.294H114.34C114.396 39.398 114.438 38.306 114.466 37.018C114.494 35.73 114.508 34.022 114.508 31.894H115.474C115.67 33.462 115.95 34.834 116.314 36.01C116.678 37.186 117.252 38.11 118.036 38.782C118.82 39.426 119.912 39.748 121.312 39.748C121.872 39.748 122.432 39.622 122.992 39.37C123.58 39.118 124.07 38.698 124.462 38.11C124.854 37.522 125.05 36.738 125.05 35.758C125.05 34.526 124.602 33.518 123.706 32.734C122.81 31.95 121.676 31.124 120.304 30.256C119.296 29.612 118.344 28.968 117.448 28.324C116.58 27.68 115.866 26.952 115.306 26.14C114.774 25.328 114.508 24.348 114.508 23.2C114.508 21.94 114.788 20.918 115.348 20.134C115.936 19.322 116.706 18.734 117.658 18.37C118.61 17.978 119.632 17.782 120.724 17.782ZM151.059 17.908V35.464C151.059 36.724 151.283 37.662 151.731 38.278C152.207 38.866 153.047 39.16 154.251 39.16V40.042C153.383 39.958 152.515 39.916 151.647 39.916C150.835 39.916 150.051 39.958 149.295 40.042C148.567 40.126 147.895 40.28 147.279 40.504V35.548C146.579 37.368 145.585 38.67 144.297 39.454C143.037 40.21 141.735 40.588 140.391 40.588C139.411 40.588 138.557 40.448 137.829 40.168C137.101 39.888 136.499 39.496 136.023 38.992C135.491 38.432 135.127 37.704 134.931 36.808C134.735 35.912 134.637 34.806 134.637 33.49V22.948C134.637 21.688 134.413 20.764 133.965 20.176C133.517 19.56 132.677 19.252 131.445 19.252V18.37C132.341 18.454 133.209 18.496 134.049 18.496C134.861 18.496 135.631 18.454 136.359 18.37C137.115 18.258 137.801 18.104 138.417 17.908V34.414C138.417 35.282 138.473 36.08 138.585 36.808C138.697 37.536 138.977 38.124 139.425 38.572C139.873 39.02 140.601 39.244 141.609 39.244C142.701 39.244 143.667 38.908 144.507 38.236C145.375 37.564 146.047 36.654 146.523 35.506C147.027 34.358 147.279 33.07 147.279 31.642V22.948C147.279 21.688 147.055 20.764 146.607 20.176C146.159 19.56 145.319 19.252 144.087 19.252V18.37C144.983 18.454 145.851 18.496 146.691 18.496C147.503 18.496 148.273 18.454 149.001 18.37C149.757 18.258 150.443 18.104 151.059 17.908ZM163.914 17.782C165.034 17.782 165.986 17.964 166.77 18.328C167.554 18.692 168.128 19.028 168.492 19.336C169.416 20.092 169.976 19.588 170.172 17.824H171.138C171.082 18.608 171.04 19.546 171.012 20.638C170.984 21.702 170.97 23.144 170.97 24.964H170.004C169.836 23.928 169.542 22.92 169.122 21.94C168.73 20.96 168.142 20.162 167.358 19.546C166.574 18.902 165.552 18.58 164.292 18.58C163.312 18.58 162.486 18.86 161.814 19.42C161.17 19.952 160.848 20.75 160.848 21.814C160.848 22.654 161.1 23.382 161.604 23.998C162.108 24.586 162.766 25.146 163.578 25.678C164.39 26.182 165.272 26.742 166.224 27.358C167.288 28.03 168.254 28.716 169.122 29.416C169.99 30.116 170.676 30.886 171.18 31.726C171.712 32.566 171.978 33.56 171.978 34.708C171.978 35.996 171.642 37.074 170.97 37.942C170.298 38.81 169.416 39.468 168.324 39.916C167.26 40.364 166.084 40.588 164.796 40.588C164.18 40.588 163.592 40.532 163.032 40.42C162.5 40.336 161.982 40.196 161.478 40C161.198 39.86 160.904 39.692 160.596 39.496C160.316 39.3 160.036 39.09 159.756 38.866C159.476 38.642 159.224 38.656 159 38.908C158.776 39.132 158.608 39.594 158.496 40.294H157.53C157.586 39.398 157.628 38.306 157.656 37.018C157.684 35.73 157.698 34.022 157.698 31.894H158.664C158.86 33.462 159.14 34.834 159.504 36.01C159.868 37.186 160.442 38.11 161.226 38.782C162.01 39.426 163.102 39.748 164.502 39.748C165.062 39.748 165.622 39.622 166.182 39.37C166.77 39.118 167.26 38.698 167.652 38.11C168.044 37.522 168.24 36.738 168.24 35.758C168.24 34.526 167.792 33.518 166.896 32.734C166 31.95 164.866 31.124 163.494 30.256C162.486 29.612 161.534 28.968 160.638 28.324C159.77 27.68 159.056 26.952 158.496 26.14C157.964 25.328 157.698 24.348 157.698 23.2C157.698 21.94 157.978 20.918 158.538 20.134C159.126 19.322 159.896 18.734 160.848 18.37C161.8 17.978 162.822 17.782 163.914 17.782Z" fill="#53493E"/>
</svg>
