<svg width="115" height="33" viewBox="0 0 115 33" fill="none" xmlns="http://www.w3.org/2000/svg">
<g opacity="0.7">
<path fill-rule="evenodd" clip-rule="evenodd" d="M10.5449 13.5306C11.2722 13.6148 11.1199 13.5554 11.3852 14.3974L17.0366 32.8413L24.3636 32.8116L28.8995 18.0475C29.2975 16.6657 29.9364 13.6247 30.7767 13.5158L30.9045 32.8265C31.7743 33.0543 38.5166 32.9998 40.3447 32.9651L41.3766 32.7274L41.2833 0.128568C37.9957 0.0493246 34.5017 0.0592301 31.2141 0.11371C28.1722 0.158285 26.2163 1.88183 25.4202 4.16504C24.398 7.0921 23.0368 12.4509 22.0687 15.8386C21.7247 17.0421 21.3611 19.0777 20.7517 19.4293C20.1079 19.1966 20.2308 19.0678 19.9998 18.2308L18.845 14.125C18.329 12.2627 17.7786 10.4302 17.2282 8.51353C16.4616 5.82915 15.6114 0.336583 11.3115 0.282103C11.0707 0.148379 11.567 0.22267 10.8594 0.0839937C10.5989 0.0295137 10.3581 0.0394192 10.0879 0.0344664L0.0530484 0.118663L0.00390625 32.8463L10.4269 32.9156L10.5449 13.5306ZM95.0742 13.4167C97.2807 13.7287 106.397 13.5405 109.763 13.5455C111.158 13.5455 113.571 13.9269 114.672 13.3523C116.52 6.9138 110.107 0.420779 105.07 0.341535C104.313 -0.183453 81.855 0.118663 81.0638 0.11371C81.108 3.25374 84.258 7.78548 85.7127 9.05338C88.0223 11.0642 90.8726 13.0057 95.0742 13.4167ZM114.112 15.4473L114.22 14.9025L82.3759 14.9669L82.4349 32.9156L92.853 32.8215L92.8383 22.4059C95.2511 22.6536 104.559 22.6288 106.603 22.0939C108.721 21.5342 109.95 20.6576 111.242 19.5383C112.574 18.3843 113.109 17.2898 114.112 15.4473ZM45.598 0.133521H45.8682V0.128568L55.4608 0.0394192H56.0554C55.962 2.33253 55.7311 18.5824 56.2372 19.4046C57.1365 19.256 58.2963 15.9278 58.9499 14.5261C59.7804 12.7432 60.5519 11.0196 61.4021 9.18215C65.1221 1.15873 64.2916 0.0443719 72.916 0.0443719C74.3707 0.0443719 76.759 -0.0943044 78.1005 0.118663L78.1448 32.8463L67.7365 32.9156L67.6185 13.5207C66.7389 13.5653 66.8519 13.9764 66.0214 15.794L59.918 29.1713C58.8811 31.3803 56.8761 32.7868 54.5074 32.9255L48.5317 32.8611H45.598V0.133521Z" fill="#BEA88E"/>
</g>
</svg>
