<svg width="24" height="24" viewBox="0 0 24 24" fill="none" xmlns="http://www.w3.org/2000/svg">
<g opacity="0.6" clip-path="url(#clip0_413_1044)">
<path d="M14.8447 6.90242C14.4243 6.48327 13.7439 6.48374 13.3241 6.90347L6.47138 13.7548C6.17157 14.0547 5.93377 14.4108 5.77155 14.8026C5.60933 15.1944 5.52588 15.6143 5.52595 16.0384C5.52601 16.4624 5.60961 16.8823 5.77196 17.2741C5.9343 17.6658 6.17222 18.0218 6.47213 18.3216C6.77203 18.6214 7.12805 18.8592 7.51986 19.0214C7.91167 19.1836 8.33159 19.2671 8.75566 19.267C9.17972 19.2669 9.59961 19.1834 9.99137 19.021C10.3831 18.8587 10.7391 18.6207 11.0389 18.3208L20.1739 9.18733C21.1832 8.17785 21.7501 6.80878 21.7499 5.3813C21.7498 3.95382 21.1826 2.58486 20.1731 1.57558C19.1636 0.566301 17.7946 -0.000628907 16.3671 -0.000488255C14.9396 -0.000347603 13.5707 0.566852 12.5614 1.57633L2.97038 11.1658L2.94938 11.1853C0.0168749 14.1178 0.0168749 18.8698 2.94938 21.8008C5.88188 24.7318 10.6339 24.7318 13.5664 21.8008L13.5859 21.7798L13.5874 21.7813L19.3734 15.9966C19.7939 15.5762 19.7938 14.8945 19.3731 14.4743C18.9529 14.0545 18.272 14.0546 17.8518 14.4745L12.0649 20.2588L12.0454 20.2783C11.0406 21.2811 9.67897 21.8444 8.25938 21.8444C6.83978 21.8444 5.47817 21.2811 4.47338 20.2783C3.97532 19.7792 3.58068 19.1866 3.3121 18.5347C3.04351 17.8827 2.90626 17.1841 2.90821 16.479C2.91016 15.7738 3.05128 15.076 3.32347 14.4256C3.59565 13.7751 3.99356 13.1847 4.49438 12.6883L4.49287 12.6868L14.0854 3.09733C15.3439 1.83733 17.3929 1.83733 18.6529 3.09733C19.9129 4.35733 19.9114 6.40483 18.6529 7.66333L9.51787 16.7968C9.31344 16.9849 9.04426 17.0867 8.76655 17.0809C8.48884 17.0752 8.22409 16.9624 8.02758 16.7661C7.83107 16.5698 7.71801 16.3051 7.71201 16.0274C7.70601 15.7497 7.80753 15.4805 7.99537 15.2758L14.8458 8.42537C15.2665 8.00469 15.266 7.32248 14.8447 6.90242Z" fill="#FAF6EF"/>
</g>
<defs>
<clipPath id="clip0_413_1044">
<rect width="24" height="24" fill="white"/>
</clipPath>
</defs>
</svg>
