<svg width="28" height="29" viewBox="0 0 28 29" fill="none" xmlns="http://www.w3.org/2000/svg">
<g opacity="0.5" clip-path="url(#clip0_251_1105)">
<path d="M14 18C15.933 18 17.5 16.433 17.5 14.5C17.5 12.567 15.933 11 14 11C12.067 11 10.5 12.567 10.5 14.5C10.5 16.433 12.067 18 14 18Z" stroke="#84694B" stroke-width="2" stroke-linecap="round" stroke-linejoin="round"/>
<path d="M22.6337 17.9993C22.4784 18.3512 22.432 18.7416 22.5007 19.12C22.5693 19.4985 22.7497 19.8477 23.0187 20.1227L23.0887 20.1927C23.3056 20.4094 23.4777 20.6667 23.5951 20.95C23.7126 21.2332 23.773 21.5369 23.773 21.8435C23.773 22.1502 23.7126 22.4538 23.5951 22.737C23.4777 23.0203 23.3056 23.2776 23.0887 23.4943C22.872 23.7113 22.6146 23.8834 22.3314 24.0008C22.0481 24.1182 21.7445 24.1787 21.4378 24.1787C21.1312 24.1787 20.8276 24.1182 20.5443 24.0008C20.261 23.8834 20.0037 23.7113 19.787 23.4943L19.717 23.4243C19.442 23.1554 19.0928 22.975 18.7143 22.9063C18.3359 22.8377 17.9455 22.884 17.5937 23.0393C17.2486 23.1872 16.9543 23.4328 16.747 23.7458C16.5397 24.0588 16.4285 24.4256 16.427 24.801V24.9993C16.427 25.6182 16.1812 26.2117 15.7436 26.6493C15.306 27.0868 14.7125 27.3327 14.0937 27.3327C13.4748 27.3327 12.8813 27.0868 12.4437 26.6493C12.0062 26.2117 11.7603 25.6182 11.7603 24.9993V24.8943C11.7513 24.5082 11.6263 24.1337 11.4016 23.8195C11.1769 23.5053 10.8628 23.266 10.5003 23.1327C10.1484 22.9774 9.7581 22.9311 9.37964 22.9997C9.00118 23.0683 8.65195 23.2487 8.37699 23.5177L8.30699 23.5877C8.09029 23.8046 7.83295 23.9767 7.54969 24.0942C7.26642 24.2116 6.96279 24.272 6.65616 24.272C6.34952 24.272 6.04589 24.2116 5.76263 24.0942C5.47937 23.9767 5.22203 23.8046 5.00533 23.5877C4.78838 23.371 4.61628 23.1136 4.49885 22.8304C4.38143 22.5471 4.32099 22.2435 4.32099 21.9368C4.32099 21.6302 4.38143 21.3266 4.49885 21.0433C4.61628 20.7601 4.78838 20.5027 5.00533 20.286L5.07533 20.216C5.34428 19.9411 5.52471 19.5918 5.59333 19.2134C5.66195 18.8349 5.61563 18.4446 5.46033 18.0927C5.31244 17.7476 5.06687 17.4533 4.75387 17.246C4.44086 17.0388 4.07408 16.9275 3.69866 16.926H3.50033C2.88149 16.926 2.28799 16.6802 1.85041 16.2426C1.41282 15.805 1.16699 15.2115 1.16699 14.5927C1.16699 13.9738 1.41282 13.3804 1.85041 12.9428C2.28799 12.5052 2.88149 12.2593 3.50033 12.2593H3.60533C3.99149 12.2503 4.366 12.1253 4.68017 11.9006C4.99435 11.6759 5.23366 11.3619 5.36699 10.9993C5.52229 10.6475 5.56862 10.2571 5.5 9.87866C5.43138 9.5002 5.25095 9.15097 4.98199 8.87602L4.91199 8.80602C4.69505 8.58931 4.52294 8.33197 4.40552 8.04871C4.2881 7.76545 4.22766 7.46182 4.22766 7.15518C4.22766 6.84855 4.2881 6.54492 4.40552 6.26165C4.52294 5.97839 4.69505 5.72105 4.91199 5.50435C5.1287 5.2874 5.38604 5.1153 5.6693 4.99788C5.95256 4.88045 6.25619 4.82001 6.56283 4.82001C6.86946 4.82001 7.17309 4.88045 7.45635 4.99788C7.73961 5.1153 7.99695 5.2874 8.21366 5.50435L8.28366 5.57435C8.55862 5.84331 8.90784 6.02373 9.2863 6.09235C9.66477 6.16098 10.0551 6.11465 10.407 5.95935H10.5003C10.8454 5.81146 11.1397 5.5659 11.347 5.25289C11.5543 4.93989 11.6655 4.5731 11.667 4.19768V3.99935C11.667 3.38051 11.9128 2.78702 12.3504 2.34943C12.788 1.91185 13.3815 1.66602 14.0003 1.66602C14.6192 1.66602 15.2127 1.91185 15.6502 2.34943C16.0878 2.78702 16.3337 3.38051 16.3337 3.99935V4.10435C16.3352 4.47977 16.4464 4.84655 16.6537 5.15956C16.861 5.47256 17.1553 5.71813 17.5003 5.86602C17.8522 6.02132 18.2426 6.06764 18.621 5.99902C18.9995 5.9304 19.3487 5.74998 19.6237 5.48102L19.6937 5.41102C19.9104 5.19407 20.1677 5.02197 20.451 4.90454C20.7342 4.78712 21.0379 4.72668 21.3445 4.72668C21.6511 4.72668 21.9548 4.78712 22.238 4.90454C22.5213 5.02197 22.7786 5.19407 22.9953 5.41102C23.2123 5.62772 23.3844 5.88506 23.5018 6.16832C23.6192 6.45158 23.6797 6.75521 23.6797 7.06185C23.6797 7.36848 23.6192 7.67211 23.5018 7.95538C23.3844 8.23864 23.2123 8.49598 22.9953 8.71268L22.9253 8.78268C22.6564 9.05764 22.4759 9.40687 22.4073 9.78533C22.3387 10.1638 22.385 10.5541 22.5403 10.906V10.9993C22.6882 11.3444 22.9338 11.6387 23.2468 11.846C23.5598 12.0533 23.9266 12.1645 24.302 12.166H24.5003C25.1192 12.166 25.7127 12.4118 26.1502 12.8494C26.5878 13.287 26.8337 13.8805 26.8337 14.4993C26.8337 15.1182 26.5878 15.7117 26.1502 16.1493C25.7127 16.5868 25.1192 16.8327 24.5003 16.8327H24.3953C24.0199 16.8342 23.6531 16.9454 23.3401 17.1527C23.0271 17.36 22.7815 17.6543 22.6337 17.9993V17.9993Z" stroke="#84694B" stroke-width="2" stroke-linecap="round" stroke-linejoin="round"/>
</g>
<defs>
<clipPath id="clip0_251_1105">
<rect width="28" height="28" fill="white" transform="translate(0 0.5)"/>
</clipPath>
</defs>
</svg>
